<?xml version="1.0" encoding="utf-8"?>
<svg xmlns="http://www.w3.org/2000/svg" viewBox="2.835 34.138 187.088 124.481" width="2426.49px" height="1614.49px">
  <path d="M 55.898 115.154 L 63.499 115.154 L 55.898 102.486 L 49.479 91.818 L 22.202 108.201 L 26.368 115.154 L 55.898 115.154 L 55.898 115.154 Z M 126.611 115.154 L 163.742 115.154 L 140.629 76.645 L 115.07 34.138 L 104.541 40.472 L 87.82 50.521 L 104.541 78.362 L 126.611 115.154 L 126.611 115.154 Z M 113.635 127.85 C 111.016 126.162 107.947 125.176 104.625 125.176 L 104.541 125.176 C 95.365 125.232 87.905 132.72 87.905 141.897 C 87.905 151.075 95.365 158.562 104.541 158.619 L 104.625 158.619 C 107.947 158.619 111.016 157.634 113.635 155.945 L 113.635 157.69 L 121.319 157.69 L 121.319 115.155 L 113.635 115.155 L 113.635 127.85 Z M 113.635 143.643 C 112.819 147.866 109.074 151.102 104.625 151.102 L 104.541 151.102 C 99.502 151.046 95.421 146.936 95.421 141.897 C 95.421 136.859 99.502 132.749 104.541 132.72 L 104.625 132.72 C 109.074 132.72 112.818 135.93 113.635 140.152 L 113.635 143.643 Z M 149.723 127.85 C 147.044 126.102 143.914 125.173 140.715 125.176 L 140.629 125.176 C 131.453 125.232 123.994 132.72 123.994 141.897 C 123.994 151.075 131.453 158.562 140.629 158.619 L 140.715 158.619 C 144.037 158.619 147.133 157.634 149.723 155.945 L 149.723 157.69 L 157.409 157.69 L 157.409 126.02 L 149.723 126.02 L 149.723 127.85 Z M 149.723 143.643 C 148.907 147.866 145.162 151.102 140.715 151.102 L 140.629 151.102 C 135.592 151.046 131.51 146.936 131.51 141.897 C 131.51 136.859 135.592 132.749 140.629 132.72 L 140.715 132.72 C 145.162 132.72 148.906 135.93 149.723 140.152 L 149.723 143.643 Z M 184.742 139.814 C 184.461 139.672 184.066 139.532 183.615 139.363 C 181.898 138.772 179.111 138.04 175.226 137.196 C 171.82 136.435 170.103 135.451 170.103 134.212 C 170.103 133.339 170.412 132.635 171.003 132.129 C 171.792 131.453 173.198 131.115 175.226 131.115 C 177.281 131.115 178.773 131.566 179.646 132.438 C 180.181 132.973 180.574 133.929 180.828 135.281 L 188.992 135.281 C 188.992 131.284 187.359 128.413 184.15 126.668 C 183.981 126.558 183.802 126.464 183.615 126.387 C 181.39 125.345 178.435 124.81 174.748 124.81 C 170.271 124.81 166.894 125.993 164.643 128.385 C 162.842 130.299 161.969 132.635 161.969 135.394 C 161.969 138.83 163.657 141.306 167.092 142.911 C 168.387 143.53 171.539 144.403 176.551 145.473 C 179.901 146.205 181.588 147.247 181.588 148.57 C 181.588 149.359 181.252 150.034 180.52 150.653 C 179.59 151.441 178.182 151.836 176.297 151.836 C 173.791 151.836 172.018 151.414 170.977 150.598 C 169.934 149.81 169.399 148.656 169.399 147.192 L 160.842 147.192 C 160.842 151.077 162.475 153.976 165.768 155.889 C 168.387 157.381 171.821 158.142 176.073 158.142 C 178.915 158.142 181.448 157.663 183.616 156.735 C 184.067 156.538 184.462 156.34 184.884 156.115 C 188.234 154.258 189.923 151.302 189.923 147.249 C 189.922 143.924 188.203 141.446 184.742 139.814 L 184.742 139.814 Z M 28.564 127.85 C 25.873 126.105 22.735 125.177 19.528 125.176 L 19.443 125.176 C 10.295 125.232 2.835 132.72 2.835 141.897 C 2.835 151.075 10.295 158.562 19.443 158.619 L 19.528 158.619 C 22.85 158.619 25.946 157.634 28.564 155.945 L 28.564 157.69 L 36.249 157.69 L 36.249 126.02 L 28.564 126.02 L 28.564 127.85 L 28.564 127.85 Z M 28.564 143.643 C 27.748 147.866 24.003 151.102 19.528 151.102 L 19.443 151.102 C 14.433 151.046 10.351 146.936 10.351 141.897 C 10.351 136.859 14.433 132.749 19.443 132.72 L 19.528 132.72 C 24.004 132.72 27.748 135.93 28.564 140.152 L 28.564 143.643 Z M 76.532 122.671 L 84.893 122.671 L 84.893 115.323 L 76.532 115.323 L 76.532 122.671 Z M 76.532 157.689 L 84.893 157.689 L 84.893 125.176 L 76.532 125.176 L 76.532 157.689 Z M 65.019 127.85 C 62.328 126.105 59.189 125.176 55.982 125.176 L 55.898 125.176 C 46.721 125.232 39.261 132.72 39.261 141.897 C 39.261 151.075 46.72 158.562 55.898 158.619 L 55.982 158.619 C 59.189 158.619 62.328 157.69 65.019 155.945 L 65.019 157.69 L 72.704 157.69 L 72.704 115.155 L 65.019 115.155 L 65.019 127.85 Z M 65.019 143.643 C 64.203 147.866 60.458 151.102 55.982 151.102 L 55.898 151.102 C 50.859 151.046 46.777 146.936 46.777 141.897 C 46.777 136.859 50.859 132.749 55.898 132.72 L 55.982 132.72 C 60.458 132.72 64.202 135.93 65.019 140.152 L 65.019 143.643 Z M 113.605 115.154 L 104.541 100.01 L 82.275 62.964 L 55.898 78.841 L 54.997 79.375 L 55.898 80.867 L 76.503 115.154 L 113.605 115.154 Z" style="" transform="matrix(0.9999999999999999, 0, 0, 0.9999999999999999, 0, -1.4210854715202004e-14)"/>
</svg>