<?xml version="1.0" encoding="utf-8"?>
<!-- Generator: Adobe Illustrator 26.2.1, SVG Export Plug-In . SVG Version: 6.00 Build 0)  -->
<svg version="1.1" id="Ebene_1" xmlns="http://www.w3.org/2000/svg" xmlns:xlink="http://www.w3.org/1999/xlink" x="0px" y="0px"
	 viewBox="0 0 172 42" style="enable-background:new 0 0 172 42;" xml:space="preserve">
<style type="text/css">
	.st0{fill:#00A97A;}
</style>
<g>
	<g>
		<path class="st0" d="M46.8,3.1c5.2,0,5.4,4.5,5.4,4.5c0,4.7-4,4.6-4,4.6c5.8,0,5.6,5.4,5.6,5.4c0,6.4-7.7,6.1-7.7,6.1H32.2
			c0,0,1.6-0.4,1.6-1.9V5.1c0-1.5-1.5-2-1.5-2H46.8z M40.4,6.6v13.4h3.9c0,0,3.4,0,3.2-2.9c0,0,0-2.4-6.3-5.1h2.5
			c0,0,2.7,0.1,2.7-2.8c0-2.7-2.9-2.7-2.9-2.7L40.4,6.6z"/>
		<path class="st0" d="M14.5,3.1c5.2,0,5.4,4.5,5.4,4.5c0,4.7-4,4.6-4,4.6c5.8,0,5.6,5.4,5.6,5.4c0,6.4-7.7,6.1-7.7,6.1H0
			c0,0,1.6-0.4,1.6-1.9V5.1c0-1.5-1.5-2-1.5-2H14.5z M8.1,6.6v13.4H12c0,0,3.4,0,3.2-2.9c0,0,0-2.4-6.3-5.1h2.5c0,0,2.7,0.1,2.7-2.8
			c0-2.7-2.9-2.7-2.9-2.7L8.1,6.6z"/>
		<path class="st0" d="M55.5,3.1c0,0,1.6,0.4,1.6,2v16.6c0,1.5-1.6,2-1.6,2h8.2v-17H67c0,0,3.1,0,3.1,3.2c0,3.2-2.8,3.3-2.8,3.3h-3
			c0,0,1.3,1.1,3,4.8c1.7,3.7,1.7,3.7,1.7,3.7c0,0,1.1,2.1,2.5,2.1h6.5c0,0-1.4-0.4-2.3-2.4c-0.9-2-0.7-1.6-1.8-4.3
			c-1.2-2.9-3.2-2.8-3.2-2.8s5.5-0.1,5.5-5.8c0-5.8-8.3-5.3-8.3-5.3H55.5z"/>
		<path class="st0" d="M96.1,23.7h8.2c0,0-1.2-0.3-2.1-2.6c-0.9-2.4-5.7-15.8-5.7-15.8S96,3.1,94.2,3.1h-9.1c0,0,1.9,0.4,1.3,2
			c-0.3,0.9-2,5.3-3.4,9h-2.1c-1.4,0-1.6,1-2.1,2.3c-0.5,1.3-1.7,2.3-1.7,2.3c0.7-0.4,3.2-0.4,3.2-0.4l1.3,0l-0.4,1.1
			c0,0-1.2,3.2-2.2,4.2H85l2-5.3c0.5,0,0.9,0,1.2,0c1.4-0.1,1.9-0.9,2.2-1.9c0.4-1,1.7-2.6,1.7-2.6c-0.7,0.2-2.7,0.2-2.7,0.2h-1
			l2.1-5.6L96.1,23.7z"/>
		<path class="st0" d="M102.4,3.1c0,0,1.6,0.4,1.6,2.1v11c0,0-0.4,7.8,9.8,7.8c10.2,0,9.9-7.4,9.9-7.4V5.2c0,0,0-2.1-1.9-2.1h-4.8
			c0,0,1.6,0.3,1.6,2.1v11.2c0,0,0.2,3.5-3.9,3.5c0,0-3.6,0.1-3.6-3.7v-11c0,0-0.1-2.1-1.9-2.1H102.4z"/>
		<path class="st0" d="M126.2,3.1c0,0,1.6,0.3,1.6,2.2v16.3c0,1.7-1.6,2.1-1.6,2.1h6.5V12.9l8.3,9.1c0,0,1.1,1.6,3.5,1.6h3.1V5.4
			c0,0,0.2-2.3-1.9-2.3H141c0,0,1.5,0.4,1.5,2.1v8.7L133,3.1H126.2z"/>
	</g>
	<rect x="26.5" class="st0" width="0.8" height="26.2"/>
</g>
<g>
	<g>
		<path class="st0" d="M37.6,36.3c1,0.6,2.2,1.2,2.2,2.8c0,2.1-1.7,2.9-3.6,2.9c-1.1,0-2.1-0.3-2.4-0.3v-1.2
			c0.2,0.1,1.2,0.5,2.5,0.5c1.3,0,2.2-0.6,2.2-1.7c0-1.2-0.9-1.6-1.7-2.1l-0.9-0.5c-0.9-0.5-2.2-1.1-2.2-2.6c0-1.8,1.4-2.6,3.3-2.6
			c1,0,1.8,0.2,2.1,0.3v1.1c-0.3-0.1-1.1-0.4-2.2-0.4C35.7,32.4,35,33,35,34c0,0.9,0.9,1.4,1.7,1.8L37.6,36.3z"/>
	</g>
	<polygon class="st0" points="48.2,31.6 48.2,36.1 44,36.1 44,31.6 42.8,31.6 42.8,41.8 44,41.8 44,37 48.2,37 48.2,41.8 49.4,41.8 
		49.4,31.6 	"/>
	<path class="st0" d="M56,32.7L56,32.7l1.5,5h-3L56,32.7z M55.3,31.6l-3.3,10.2h1.2l1-3.2h3.6l1,3.2H60l-3.3-10.2H55.3z"/>
	<g>
		<path class="st0" d="M63.9,32.6h0.9c1.2,0,2.6,0,2.6,1.7c0,1.7-1.4,2-2.8,2h-0.6V32.6z M62.8,41.8h1.2v-4.5H65
			c1.6,0,1.9,0.7,2.2,2.2l0.5,2.4h1.2L68.2,39c-0.2-1.1-0.4-1.9-1.8-2.3v0c0.9-0.2,2.1-0.7,2.1-2.6c0-2.5-2.6-2.6-3.3-2.6h-2.5V41.8
			z"/>
	</g>
	<rect x="72.1" y="31.6" class="st0" width="1.2" height="10.2"/>
	<polygon class="st0" points="82.9,31.6 82.9,40.3 82.9,40.3 78.7,31.6 77.2,31.6 77.2,41.8 78.3,41.8 78.3,33.2 78.3,33.2 
		82.5,41.8 84,41.8 84,31.6 	"/>
	<g>
		<path class="st0" d="M94.4,41c-0.3,0.2-1.3,1-2.9,1c-3.2,0-4.1-2.6-4.1-5.6c0-2.6,1-4.9,3.8-4.9c2,0,3.3,1.2,3.3,2.9h-1.3
			c0-0.9-0.5-2-2-2c-2.1,0-2.6,2.1-2.6,4c0,2,0.3,4.6,2.7,4.6c1,0,1.7-0.4,1.9-0.6V37h-2.3v-1h3.5V41z"/>
	</g>
	<polygon class="st0" points="103.1,31.6 103.1,41.8 108.2,41.8 108.2,40.9 104.3,40.9 104.3,37 107.9,37 107.9,36 104.3,36 
		104.3,32.6 108.1,32.6 108.1,31.6 	"/>
	<polygon class="st0" points="116.4,31.6 114.1,35.4 111.9,31.6 110.6,31.6 113.5,36.5 110.3,41.8 111.5,41.8 114.1,37.5 
		116.7,41.8 118,41.8 114.8,36.5 117.6,31.6 	"/>
	<g>
		<path class="st0" d="M121.5,32.6h1c0.8,0,2.3,0,2.3,1.9c0,1.2-0.6,1.8-2.1,1.8h-1.2V32.6z M120.3,41.8h1.2v-4.6h1.2
			c1.9,0,3.2-0.8,3.2-2.8c0-2.8-2.4-2.8-3.2-2.8h-2.4V41.8z"/>
	</g>
	<polygon class="st0" points="128.8,31.6 128.8,41.8 133.9,41.8 133.9,40.9 130,40.9 130,37 133.6,37 133.6,36 130,36 130,32.6 
		133.7,32.6 133.7,31.6 	"/>
	<g>
		<path class="st0" d="M138.1,32.6h0.9c1.2,0,2.6,0,2.6,1.7c0,1.7-1.4,2-2.8,2h-0.6V32.6z M137,41.8h1.2v-4.5h1.1
			c1.6,0,1.9,0.7,2.2,2.2l0.5,2.4h1.2l-0.6-2.8c-0.2-1.1-0.4-1.9-1.8-2.3v0c0.9-0.2,2.1-0.7,2.1-2.6c0-2.5-2.6-2.6-3.3-2.6H137V41.8
			z"/>
	</g>
	<polygon class="st0" points="145,31.6 145,32.6 147.5,32.6 147.5,41.8 148.6,41.8 148.6,32.6 151.1,32.6 151.1,31.6 	"/>
	<rect x="153.5" y="31.6" class="st0" width="1.2" height="10.2"/>
	<g>
		<path class="st0" d="M161.7,36.3c1,0.6,2.2,1.2,2.2,2.8c0,2.1-1.7,2.9-3.6,2.9c-1.1,0-2.1-0.3-2.4-0.3v-1.2
			c0.2,0.1,1.2,0.5,2.5,0.5c1.3,0,2.2-0.6,2.2-1.7c0-1.2-0.9-1.6-1.7-2.1l-0.9-0.5c-0.9-0.5-2.2-1.1-2.2-2.6c0-1.8,1.4-2.6,3.3-2.6
			c1,0,1.8,0.2,2.1,0.3v1.1c-0.3-0.1-1.1-0.4-2.2-0.4c-1.2,0-1.9,0.6-1.9,1.6c0,0.9,0.9,1.4,1.7,1.8L161.7,36.3z"/>
	</g>
	<polygon class="st0" points="166.9,31.6 166.9,41.8 172,41.8 172,40.9 168.1,40.9 168.1,37 171.7,37 171.7,36 168.1,36 168.1,32.6 
		171.9,32.6 171.9,31.6 	"/>
</g>
</svg>
