<svg xmlns="http://www.w3.org/2000/svg" xmlns:svg="http://www.w3.org/2000/svg" version="1.1"
  id="svg1" width="1225.792" height="405.45331" viewBox="0 0 1225.792 405.45331">
  <defs id="defs1" />
  <g id="g1" transform="translate(-667.10132,-7.3527e-5)">
    <g id="group-R5">
      <path id="path38"
        d="m 8871.16,31229.5 c -18.23,52.9 -57.31,90.2 -119.22,90.2 -83.78,0 -134.75,-74.6 -134.75,-221.1 -1.79,-146.6 43.68,-221.1 138.34,-221.1 56.47,0 91.06,19.1 128.35,92.8 l 116.53,-29.5 c -39.14,-108.4 -124.71,-163.9 -244.88,-163.9 -167.44,0 -263.95,117.1 -263.95,321.7 0,204.6 96.51,321.6 263.95,321.6 125.66,0 198.45,-53.7 229.4,-164.7 l -113.77,-26"
        style="fill:#90a49f;fill-opacity:1;fill-rule:nonzero;stroke:none"
        transform="matrix(0.13333333,0,0,-0.13333333,0,4274.4133)" />
      <path id="path39"
        d="m 9069.51,30785.6 v 626 h 435.03 V 31311 h -309.43 v -149.1 h 224.81 v -100.6 h -224.81 v -175.1 h 319.47 v -100.6 h -445.07"
        style="fill:#90a49f;fill-opacity:1;fill-rule:nonzero;stroke:none"
        transform="matrix(0.13333333,0,0,-0.13333333,0,4274.4133)" />
      <path id="path40"
        d="m 9595.51,30785.6 v 626 h 131.05 l 258.51,-426.6 h 1.79 v 426.6 h 118.34 v -626 h -121.03 l -268.49,445.6 h -1.85 v -445.6 h -118.32"
        style="fill:#90a49f;fill-opacity:1;fill-rule:nonzero;stroke:none"
        transform="matrix(0.13333333,0,0,-0.13333333,0,4274.4133)" />
      <path id="path41"
        d="m 10639.4,31412.4 v -100.5 h -172.1 v -526.3 h -125.6 v 526.3 h -172 v 100.5 h 469.7"
        style="fill:#90a49f;fill-opacity:1;fill-rule:nonzero;stroke:none"
        transform="matrix(0.13333333,0,0,-0.13333333,0,4274.4133)" />
      <path id="path42"
        d="m 10826.8,31137.6 h 92.9 c 98.2,0 128.3,29.5 128.3,88.4 0,59 -37.4,88.5 -106.5,88.5 h -114.7 z m -125.6,-352 v 625.9 h 262.2 c 149.2,0 209.2,-82.3 210.2,-185.5 0.9,-77.1 -40.1,-139.6 -120.1,-161.2 l 144.6,-279.2 h -139.2 l -123.8,254.9 h -108.3 v -254.9 h -125.6"
        style="fill:#90a49f;fill-opacity:1;fill-rule:nonzero;stroke:none"
        transform="matrix(0.13333333,0,0,-0.13333333,0,4274.4133)" />
      <path id="path43"
        d="m 11513,31319.7 c -102.8,0 -150.2,-74.6 -150.2,-221.1 -1.8,-146.6 46.4,-221.1 150.2,-221.1 102.8,0 150.2,74.5 150.2,221.1 0,146.5 -47.4,221.1 -150.2,221.1 m 0,-542.8 c -179.3,0 -275.8,117.1 -275.8,321.7 0,204.6 96.5,321.6 275.8,321.6 179.3,0 275.8,-117 275.8,-321.6 0,-204.6 -96.5,-321.7 -275.8,-321.7"
        style="fill:#90a49f;fill-opacity:1;fill-rule:nonzero;stroke:none"
        transform="matrix(0.13333333,0,0,-0.13333333,0,4274.4133)" />
      <path id="path44"
        d="m 12236.5,30886.2 h 83.7 c 143.8,0 177.5,100.5 177.5,212.4 0,111.8 -33.7,212.4 -177.5,212.4 h -83.7 z m -125.7,525.4 h 217.6 c 173.8,0 294,-91.9 294.9,-313 -0.9,-221.1 -121.1,-313 -294.9,-313 h -217.6 v 626"
        style="fill:#90a49f;fill-opacity:1;fill-rule:nonzero;stroke:none"
        transform="matrix(0.13333333,0,0,-0.13333333,0,4274.4133)" />
      <path id="path45"
        d="m 12696,30785.6 v 626 h 435 V 31311 h -309.4 v -149.1 h 224.8 v -100.6 h -224.8 v -175.1 h 319.5 v -100.6 H 12696"
        style="fill:#90a49f;fill-opacity:1;fill-rule:nonzero;stroke:none"
        transform="matrix(0.13333333,0,0,-0.13333333,0,4274.4133)" />
      <path id="path46"
        d="m 8567.51,29695.3 v 876.2 h 247.23 l 177.09,-611.6 h 2.58 l 178.38,611.6 h 249.76 v -876.2 h -152.92 v 689.3 h -2.52 l -206.47,-689.3 h -133.8 l -203.89,689.3 h -2.52 v -689.3 h -152.92"
        style="fill:#1f693b;fill-opacity:1;fill-rule:nonzero;stroke:none"
        transform="matrix(0.13333333,0,0,-0.13333333,0,4274.4133)" />
      <path id="path47"
        d="m 9594.75,29695.3 v 876.2 h 609.05 v -140.8 H 9770.6 V 30222 h 314.8 v -140.8 h -314.8 v -245.1 h 447.3 v -140.8 h -623.15"
        style="fill:#1f693b;fill-opacity:1;fill-rule:nonzero;stroke:none"
        transform="matrix(0.13333333,0,0,-0.13333333,0,4274.4133)" />
      <path id="path48"
        d="m 10503.4,29836.1 h 117.3 c 201.3,0 248.5,140.7 248.5,297.3 0,156.6 -47.2,297.3 -248.5,297.3 h -117.3 z m -175.8,735.4 h 304.5 c 243.4,0 411.6,-128.7 412.8,-438.1 -1.2,-309.4 -169.4,-438.1 -412.8,-438.1 h -304.5 v 876.2"
        style="fill:#1f693b;fill-opacity:1;fill-rule:nonzero;stroke:none"
        transform="matrix(0.13333333,0,0,-0.13333333,0,4274.4133)" />
      <path id="path49" d="m 11163.6,30571.5 h 175.9 v -876.2 h -175.9 v 876.2"
        style="fill:#1f693b;fill-opacity:1;fill-rule:nonzero;stroke:none"
        transform="matrix(0.13333333,0,0,-0.13333333,0,4274.4133)" />
      <path id="path50"
        d="m 11995.8,30316.6 c -25.5,74.1 -80.3,126.2 -167,126.2 -117.2,0 -188.5,-104.3 -188.5,-309.4 -2.6,-205.1 61.1,-309.4 193.6,-309.4 79.1,0 127.5,26.7 179.7,129.8 l 163.1,-41.3 c -54.8,-151.7 -174.5,-229.3 -342.8,-229.3 -234.4,0 -369.4,163.8 -369.4,450.2 0,286.4 135,450.2 369.4,450.2 175.9,0 277.8,-75.2 321.1,-230.6 l -159.2,-36.4"
        style="fill:#1f693b;fill-opacity:1;fill-rule:nonzero;stroke:none"
        transform="matrix(0.13333333,0,0,-0.13333333,0,4274.4133)" />
      <path id="path51" d="m 12290.3,30571.5 h 175.8 v -876.2 h -175.8 v 876.2"
        style="fill:#1f693b;fill-opacity:1;fill-rule:nonzero;stroke:none"
        transform="matrix(0.13333333,0,0,-0.13333333,0,4274.4133)" />
      <path id="path52"
        d="m 12656,29695.3 v 876.2 h 183.5 l 361.9,-597.1 h 2.5 v 597.1 h 165.7 v -876.2 h -169.5 l -375.8,623.8 h -2.6 v -623.8 H 12656"
        style="fill:#1f693b;fill-opacity:1;fill-rule:nonzero;stroke:none"
        transform="matrix(0.13333333,0,0,-0.13333333,0,4274.4133)" />
      <path id="path53"
        d="m 13718.9,30023 h 214.1 l -103.2,381 h -2.5 z m -2.5,549.7 h 219.1 l 261.2,-877.4 h -174.5 l -51,189.3 h -290.5 l -54.8,-189.3 h -174.6 l 265.1,877.4"
        style="fill:#1f693b;fill-opacity:1;fill-rule:nonzero;stroke:none"
        transform="matrix(0.13333333,0,0,-0.13333333,0,4274.4133)" />
      <path id="path54" d="m 8582.21,29108.3 v 346.3 h 66.17 v -290.7 h 150.56 v -55.6 h -216.73"
        style="fill:#90a49f;fill-opacity:1;fill-rule:nonzero;stroke:none"
        transform="matrix(0.13333333,0,0,-0.13333333,0,4274.4133)" />
      <path id="path55"
        d="m 8953.25,29227.7 c -39.82,-7.7 -83.45,-15.8 -83.45,-50.8 0,-18.7 12,-29.3 28.77,-29.3 18.67,0 42.17,15.9 54.68,26.4 z m 6.22,-119.4 -3.81,21.6 c -24,-16.3 -46.55,-26.4 -77.72,-26.4 -45.03,0 -67.63,32.1 -67.63,66.2 0,56.6 46.04,86.3 142.94,97.8 v 21.1 c 0,19.2 -15.37,29.8 -36.45,29.8 -27.82,0 -43.18,-14.9 -54.68,-30.7 l -38.35,29.2 c 15.3,26.4 56.58,46.5 93.03,45.6 67.12,-1.5 95.94,-25.9 95.94,-100.7 v -117.5 c 0,-12.5 0.95,-25 4.77,-36 h -58.04"
        style="fill:#90a49f;fill-opacity:1;fill-rule:nonzero;stroke:none"
        transform="matrix(0.13333333,0,0,-0.13333333,0,4274.4133)" />
      <path id="path56"
        d="m 9121.91,29173.6 c 12.5,-9.6 20.63,-22.1 46.04,-22.1 35.49,0 55.62,28.7 55.62,81.5 0,52.8 -20.13,81.5 -55.62,81.5 -19.18,0 -34.04,-10.1 -46.04,-21.1 z m -59.44,280.9 h 59.44 v -119.8 h 1.01 c 11.94,15.8 40.26,27.8 60.39,27.8 64.26,0 99.76,-61.4 99.76,-122.8 0,-77.7 -33.59,-136.2 -99.76,-136.2 -26.86,0 -46.49,11.1 -67.63,31.6 l -6.67,-26.8 h -46.54 v 346.2"
        style="fill:#90a49f;fill-opacity:1;fill-rule:nonzero;stroke:none"
        transform="matrix(0.13333333,0,0,-0.13333333,0,4274.4133)" />
      <path id="path57"
        d="m 9408.56,29314.5 c -33.08,0 -48.9,-25.9 -48.9,-81.5 0,-55.6 15.82,-81.5 48.9,-81.5 33.09,0 48.9,25.9 48.9,81.5 0,55.6 -15.81,81.5 -48.9,81.5 m 0,48 c 67.63,0 108.39,-50.4 108.39,-129.5 0,-79.1 -40.76,-129.5 -108.39,-129.5 -67.63,0 -108.39,50.4 -108.39,129.5 0,79.1 40.76,129.5 108.39,129.5"
        style="fill:#90a49f;fill-opacity:1;fill-rule:nonzero;stroke:none"
        transform="matrix(0.13333333,0,0,-0.13333333,0,4274.4133)" />
      <path id="path58"
        d="m 9545.57,29108.3 v 249.4 h 54.67 v -42.7 h 0.96 c 14.41,29.7 34.54,46.5 70.04,47.5 v -62.9 c -2.92,0.5 -6.28,0.5 -10.55,0.5 -29.77,0 -55.62,-34 -55.62,-40.2 v -151.6 h -59.5"
        style="fill:#90a49f;fill-opacity:1;fill-rule:nonzero;stroke:none"
        transform="matrix(0.13333333,0,0,-0.13333333,0,4274.4133)" />
      <path id="path59"
        d="m 9820.25,29227.7 c -39.76,-7.7 -83.44,-15.8 -83.44,-50.8 0,-18.7 12,-29.3 28.77,-29.3 18.72,0 42.22,15.9 54.67,26.4 z m 6.22,-119.4 -3.81,21.6 c -24,-16.3 -46.54,-26.4 -77.66,-26.4 -45.09,0 -67.63,32.1 -67.63,66.2 0,56.6 45.98,86.3 142.88,97.8 v 21.1 c 0,19.2 -15.31,29.8 -36.45,29.8 -27.81,0 -43.12,-14.9 -54.67,-30.7 l -38.36,29.2 c 15.37,26.4 56.58,46.5 93.03,45.6 67.12,-1.5 95.94,-25.9 95.94,-100.7 v -117.5 c 0,-12.5 0.96,-25 4.77,-36 h -58.04"
        style="fill:#90a49f;fill-opacity:1;fill-rule:nonzero;stroke:none"
        transform="matrix(0.13333333,0,0,-0.13333333,0,4274.4133)" />
      <path id="path60"
        d="m 9939.09,29357.7 v 82.5 h 59.49 v -82.5 h 48.92 v -48 h -48.92 v -141 c 0,-13.4 6.72,-17.2 21.52,-17.2 9.2,0 18.7,2.9 27.4,4.8 v -48.9 c -16.3,-2 -30.8,-3.9 -47,-3.9 -44.14,0 -61.41,22.1 -61.41,57.6 v 148.6 h -34.55 v 48 h 34.55"
        style="fill:#90a49f;fill-opacity:1;fill-rule:nonzero;stroke:none"
        transform="matrix(0.13333333,0,0,-0.13333333,0,4274.4133)" />
      <path id="path61"
        d="m 10247.4,29459.4 -70.1,-70.1 h -48.9 l 45.1,70.1 z m -78.7,-144.9 c -33.1,0 -48.9,-25.8 -48.9,-81.5 0,-55.6 15.8,-81.5 48.9,-81.5 33.1,0 48.9,25.9 48.9,81.5 0,55.7 -15.8,81.5 -48.9,81.5 m 0,48 c 67.6,0 108.4,-50.3 108.4,-129.5 0,-79.1 -40.8,-129.5 -108.4,-129.5 -67.6,0 -108.4,50.4 -108.4,129.5 0,79.2 40.8,129.5 108.4,129.5"
        style="fill:#90a49f;fill-opacity:1;fill-rule:nonzero;stroke:none"
        transform="matrix(0.13333333,0,0,-0.13333333,0,4274.4133)" />
      <path id="path62"
        d="m 10305.7,29108.3 v 249.4 h 54.7 v -42.7 h 0.9 c 14.5,29.7 34.6,46.5 70.1,47.5 v -62.9 c -2.9,0.5 -6.2,0.5 -10.6,0.5 -29.7,0 -55.6,-34 -55.6,-40.2 v -151.6 h -59.5"
        style="fill:#90a49f;fill-opacity:1;fill-rule:nonzero;stroke:none"
        transform="matrix(0.13333333,0,0,-0.13333333,0,4274.4133)" />
      <path id="path63"
        d="m 10525.3,29108.3 h -59.5 v 249.4 h 59.5 z m -59.5,351 h 59.5 v -55.6 h -59.5 v 55.6"
        style="fill:#90a49f;fill-opacity:1;fill-rule:nonzero;stroke:none"
        transform="matrix(0.13333333,0,0,-0.13333333,0,4274.4133)" />
      <path id="path64"
        d="m 10672.4,29314.5 c -33.1,0 -48.9,-25.9 -48.9,-81.5 0,-55.6 15.8,-81.5 48.9,-81.5 33.1,0 49,25.9 49,81.5 0,55.6 -15.9,81.5 -49,81.5 m 0,48 c 67.6,0 108.4,-50.4 108.4,-129.5 0,-79.1 -40.8,-129.5 -108.4,-129.5 -67.6,0 -108.4,50.4 -108.4,129.5 0,79.1 40.8,129.5 108.4,129.5"
        style="fill:#90a49f;fill-opacity:1;fill-rule:nonzero;stroke:none"
        transform="matrix(0.13333333,0,0,-0.13333333,0,4274.4133)" />
      <path id="path65"
        d="m 11086.1,29263.7 c -1,34.5 -19.2,54.7 -48,54.7 -28.8,0 -47,-20.2 -47.9,-54.7 z m -95.9,-40.3 c 0.9,-51.8 23.9,-71.9 51.8,-71.9 27.8,0 40.7,12.4 55.6,29.7 l 43.2,-26.9 c -23.1,-35.4 -56.6,-50.8 -104.6,-50.8 -64.7,0 -105.5,50.4 -105.5,129.5 0,79.1 40.8,129.5 108.4,129.5 65.2,0.5 101.7,-54.7 101.7,-114.6 v -24.5 h -150.6"
        style="fill:#90a49f;fill-opacity:1;fill-rule:nonzero;stroke:none"
        transform="matrix(0.13333333,0,0,-0.13333333,0,4274.4133)" />
      <path id="path66" d="m 11332.4,29454.6 h 66.2 v -346.3 h -66.2 v 346.3"
        style="fill:#90a49f;fill-opacity:1;fill-rule:nonzero;stroke:none"
        transform="matrix(0.13333333,0,0,-0.13333333,0,4274.4133)" />
      <path id="path67"
        d="m 11466.6,29108.3 v 249.4 h 54.1 v -26.9 c 22.6,20.7 40.8,31.7 74.8,31.7 25.9,0 50.4,-12.5 61.4,-36.4 20.7,20.5 44.6,36.4 85.9,36.4 25.9,0 61.4,-15.4 61.4,-74.8 v -179.4 h -59.5 v 174.1 c 0,20.2 -8.1,31.1 -29.7,32.2 -15.4,0 -36,-13.9 -49.9,-26.9 v -179.4 h -59.5 v 174.1 c 0,20.2 -8.2,31.1 -29.7,32.2 -15.4,0 -36,-13.9 -49.9,-26.9 v -179.4 h -59.4"
        style="fill:#90a49f;fill-opacity:1;fill-rule:nonzero;stroke:none"
        transform="matrix(0.13333333,0,0,-0.13333333,0,4274.4133)" />
      <path id="path68"
        d="m 11977.1,29227.7 c -39.8,-7.7 -83.5,-15.8 -83.5,-50.8 0,-18.7 12,-29.3 28.8,-29.3 18.7,0 42.2,15.9 54.7,26.4 z m 6.2,-119.4 -3.8,21.6 c -24,-16.3 -46.6,-26.4 -77.8,-26.4 -45,0 -67.5,32.1 -67.5,66.2 0,56.6 46,86.3 142.9,97.8 v 21.1 c 0,19.2 -15.4,29.8 -36.5,29.8 -27.8,0 -43.1,-14.9 -54.7,-30.7 l -38.3,29.2 c 15.3,26.4 56.6,46.5 93,45.6 67.1,-1.5 95.9,-25.9 95.9,-100.7 v -117.5 c 0,-12.5 1,-25 4.8,-36 h -58"
        style="fill:#90a49f;fill-opacity:1;fill-rule:nonzero;stroke:none"
        transform="matrix(0.13333333,0,0,-0.13333333,0,4274.4133)" />
      <path id="path69"
        d="m 12169.3,29318.4 c -25.4,0 -43.2,-18.2 -43.2,-41.3 0,-23 17.8,-41.2 43.2,-41.2 22.5,0 40.7,18.2 40.7,41.2 0,23.1 -18.2,41.3 -40.7,41.3 m -53.3,-234 c 0,-19.3 16.3,-27.8 66.2,-27.8 38.4,0 51.3,19.1 51.3,27.8 0,11.5 -17.7,28.7 -75.3,28.7 -32.6,0 -42.2,-18.2 -42.2,-28.7 m 173.6,237.8 c -13.9,0 -29.2,0 -38.4,-5.8 7.7,-10.5 13.5,-24.9 13.5,-44.1 0,-47 -31.7,-80.5 -94,-80.5 -25.9,0 -46.5,-1 -46.5,-15.4 0,-40.3 164,14.4 164,-85.4 0,-35.5 -36,-73.8 -115.6,-73.8 -67.2,0 -111.3,20.1 -111.3,59.4 0,31.2 23.6,46.1 45.1,46.1 v 1 c -11.5,7.2 -36.9,13.4 -36.9,40.2 0,24 27.8,42.3 38.9,45.6 -20.7,16.8 -37,36 -37,66.2 0,43.6 33.6,86.8 98.3,86.8 21.1,0 46.1,-8.6 61.4,-22 11.5,15.3 30.2,23 58.5,22 v -40.3"
        style="fill:#90a49f;fill-opacity:1;fill-rule:nonzero;stroke:none"
        transform="matrix(0.13333333,0,0,-0.13333333,0,4274.4133)" />
      <path id="path70"
        d="m 12452.5,29263.7 c -0.9,34.5 -19.2,54.7 -47.9,54.7 -28.8,0 -47,-20.2 -48,-54.7 z m -95.9,-40.3 c 1,-51.8 24,-71.9 51.8,-71.9 27.8,0 40.8,12.4 55.7,29.7 l 43.1,-26.9 c -23,-35.4 -56.6,-50.8 -104.5,-50.8 -64.7,0 -105.6,50.4 -105.6,129.5 0,79.1 40.9,129.5 108.4,129.5 65.2,0.5 101.7,-54.7 101.7,-114.6 v -24.5 h -150.6"
        style="fill:#90a49f;fill-opacity:1;fill-rule:nonzero;stroke:none"
        transform="matrix(0.13333333,0,0,-0.13333333,0,4274.4133)" />
      <path id="path71"
        d="m 12546.4,29108.3 v 249.4 h 54.2 v -26.9 c 22.5,20.7 40.7,31.7 74.8,31.7 25.9,0 50.4,-12.5 61.4,-36.4 20.6,20.5 44.6,36.4 85.8,36.4 25.9,0 61.4,-15.4 61.4,-74.8 v -179.4 h -59.5 v 174.1 c 0,20.2 -8.1,31.1 -29.7,32.2 -15.3,0 -35.9,-13.9 -49.8,-26.9 v -179.4 h -59.5 v 174.1 c 0,20.2 -8.2,31.1 -29.7,32.2 -15.4,0 -36,-13.9 -49.9,-26.9 v -179.4 h -59.5"
        style="fill:#90a49f;fill-opacity:1;fill-rule:nonzero;stroke:none"
        transform="matrix(0.13333333,0,0,-0.13333333,0,4274.4133)" />
      <path id="path72"
        d="m 8026.79,30546.4 c 0,-834.9 -676.83,-1511.8 -1511.73,-1511.8 -834.97,0 -1511.8,676.9 -1511.8,1511.8 0,834.9 676.83,1511.7 1511.8,1511.7 834.9,0 1511.73,-676.8 1511.73,-1511.7"
        style="fill:#1f693b;fill-opacity:1;fill-rule:evenodd;stroke:none"
        transform="matrix(0.13333333,0,0,-0.13333333,0,4274.4133)" />
      <path id="path73"
        d="m 7252.61,30939.5 -368.19,-446.2 c -19.63,-23.7 -30.28,-53.5 -30.28,-84.2 v -551.4 c 0,-92.2 74.52,-166.9 166.49,-166.9 h 111.36 c 91.97,0 166.49,74.7 166.49,166.9 V 30923 c 0,24.3 -30.39,35.2 -45.87,16.5 m -1106.93,-464.1 c 19.57,-23.7 30.28,-53.5 30.28,-84.2 v -533.5 c 0,-92.2 -74.52,-166.9 -166.49,-166.9 h -111.36 c -91.97,0 -166.55,74.7 -166.55,166.9 V 30905 c 0,24.3 30.45,35.3 45.93,16.6 l 368.19,-446.2"
        style="fill:#ffffff;fill-opacity:1;fill-rule:nonzero;stroke:none"
        transform="matrix(0.13333333,0,0,-0.13333333,0,4274.4133)" />
      <path id="path74"
        d="m 5728.09,31150.6 c 0,-63.4 23.39,-121.3 61.85,-165.7 l -0.5,-0.1 519.26,-629 c 52.26,-63.5 120.39,-96.6 189.31,-99.8 75.7,-3.1 152.24,30.2 209.72,99.8 l 295.8,358.3 c -48.28,-39.5 -104.53,-59.1 -160.77,-58.8 -95.61,0.7 -174.73,68 -241.07,145.3 -6.95,8.1 -13.51,15.8 -19.85,23.1 l -141.2,171.2 c -65.77,79.7 -131.55,159.4 -197.38,239.1 -20.19,24.5 -58.21,68.1 -70.99,82.7 -1.29,1.5 -2.64,3.1 -3.98,4.6 -0.17,0.1 -0.4,0.4 -0.4,0.4 v 0 c -46.32,50.4 -112.76,82.1 -186.62,82.1 -139.85,0 -253.18,-113.4 -253.18,-253.2"
        style="fill:#ffffff;fill-opacity:1;fill-rule:nonzero;stroke:none"
        transform="matrix(0.13333333,0,0,-0.13333333,0,4274.4133)" />
      <path id="path75"
        d="m 6841.98,31315.8 -299.17,-364 78.34,-94.9 19.57,-22.9 c 71.89,-83.9 170.02,-153.8 285.99,-115.2 78.05,26 141.42,88.7 196.37,147.2 35.89,38.3 69.76,78.4 102.56,119.3 3.59,4.2 7.07,8.4 10.32,12.6 l 0.34,0.4 c 30.17,39.7 49.06,88.7 51.42,142.9 5.5,127 -86.64,239.9 -211.96,260.3 -13.97,2.3 -27.71,3.4 -41.33,3.4 -75.93,0 -145.52,-34.1 -192.45,-89.1"
        style="fill:#ffffff;fill-opacity:1;fill-rule:nonzero;stroke:none"
        transform="matrix(0.13333333,0,0,-0.13333333,0,4274.4133)" />
    </g>
  </g>
</svg>