<?xml version="1.0" encoding="utf-8"?>
<svg xmlns="http://www.w3.org/2000/svg" viewBox="-1959.8546 950.8607 4786.7727 352"
    width="4786.77px" height="352px">
    <g
        transform="matrix(0.10000000149011612, 0, 0, -0.10000000149011612, -2109.295654296875, 365.5006408691406)"
        fill="#000000" stroke="none">
        <path
            d="M 5767.41 -5865.6 C 5763.41 -5872.6 5693.41 -5995.6 5613.41 -6138.6 L 5466.41 -6398.6 L 5651.41 -6401.6 L 5836.41 -6403.6 L 6097.41 -6162.6 C 6241.41 -6029.6 6375.41 -5905.6 6394.41 -5886.6 L 6429.41 -5853.6 L 6102.41 -5853.6 C 5851.41 -5853.6 5773.41 -5856.6 5767.41 -5865.6 Z"
            style="fill: rgb(138, 22, 2);" />
        <path
            d="M 17699.4 -5860.6 C 17475.4 -5891.6 17311.4 -6017.6 17254.4 -6200.6 C 17230.4 -6279.6 17204.4 -6468.6 17204.4 -6569.6 L 17204.4 -6643.6 L 17064.4 -6643.6 L 16924.4 -6643.6 L 16924.4 -6923.6 L 16924.4 -7203.6 L 17064.4 -7203.6 L 17204.4 -7203.6 L 17204.4 -7913.6 L 17204.4 -8623.6 L 17584.4 -8623.6 L 17964.4 -8623.6 L 17964.4 -7913.6 L 17964.4 -7203.6 L 18144.4 -7203.6 L 18324.4 -7203.6 L 18324.4 -6923.6 L 18324.4 -6643.6 L 18143.4 -6643.6 L 17961.4 -6643.6 L 17967.4 -6559.6 C 17979.4 -6389.6 18035.4 -6333.6 18194.4 -6333.6 C 18230.4 -6333.6 18290.4 -6338.6 18328.4 -6343.6 C 18371.4 -6350.6 18400.4 -6350.6 18403.4 -6344.6 C 18412.4 -6330.6 18488.4 -5904.6 18483.4 -5898.6 C 18480.4 -5896.6 18389.4 -5884.6 18281.4 -5873.6 C 18100.4 -5855.6 17789.4 -5848.6 17699.4 -5860.6 Z"
            style="fill: rgb(138, 22, 2);" />
        <path
            d="M 4154.41 -7258.6 L 4154.41 -8623.6 L 4529.41 -8623.6 L 4904.41 -8623.6 L 4904.41 -7258.6 L 4904.41 -5893.6 L 4529.41 -5893.6 L 4154.41 -5893.6 L 4154.41 -7258.6 Z"
            style="fill: rgb(138, 22, 2);" />
        <path
            d="M 9234.41 -6153.6 L 9234.41 -6413.6 L 9609.41 -6413.6 L 9984.41 -6413.6 L 9984.41 -6153.6 L 9984.41 -5893.6 L 9609.41 -5893.6 L 9234.41 -5893.6 L 9234.41 -6153.6 Z"
            style="fill: rgb(138, 22, 2);" />
        <path
            d="M 21174.4 -7258.6 L 21174.4 -8623.6 L 21554.4 -8623.6 L 21934.4 -8623.6 L 21934.4 -7258.6 L 21934.4 -5893.6 L 21554.4 -5893.6 L 21174.4 -5893.6 L 21174.4 -7258.6 Z"
            style="fill: rgb(138, 22, 2);" />
        <path
            d="M 22444.4 -6153.6 L 22444.4 -6413.6 L 22824.4 -6413.6 L 23204.4 -6413.6 L 23204.4 -6153.6 L 23204.4 -5893.6 L 22824.4 -5893.6 L 22444.4 -5893.6 L 22444.4 -6153.6 Z"
            style="fill: rgb(138, 22, 2);" />
        <path
            d="M 39464.4 -6089.6 L 39089.4 -6282.6 L 39086.4 -6462.6 L 39084.4 -6643.6 L 38944.4 -6643.6 L 38804.4 -6643.6 L 38804.4 -6923.6 L 38804.4 -7203.6 L 38944.4 -7203.6 L 39084.4 -7203.6 L 39084.4 -7580.6 C 39085.4 -8131.6 39100.4 -8278.6 39171.4 -8416.6 C 39231.4 -8530.6 39328.4 -8604.6 39464.4 -8639.6 C 39610.4 -8676.6 39919.4 -8673.6 40164.4 -8632.6 C 40233.4 -8621.6 40290.4 -8610.6 40290.4 -8610.6 C 40293.4 -8606.6 40237.4 -8092.6 40233.4 -8089.6 C 40231.4 -8087.6 40189.4 -8096.6 40139.4 -8109.6 C 40090.4 -8121.6 40031.4 -8132.6 40009.4 -8132.6 C 39948.4 -8133.6 39891.4 -8102.6 39868.4 -8057.6 C 39850.4 -8021.6 39849.4 -7989.6 39846.4 -7610.6 L 39843.4 -7203.6 L 40053.4 -7203.6 L 40264.4 -7203.6 L 40264.4 -6923.6 L 40264.4 -6643.6 L 40054.4 -6643.6 L 39844.4 -6643.6 L 39842.4 -6270.6 L 39839.4 -5897.6 L 39464.4 -6089.6 Z"
            style="fill: rgb(138, 22, 2);" />
        <path
            d="M 41154.4 -6090.6 L 40779.4 -6282.6 L 40776.4 -6462.6 L 40774.4 -6643.6 L 40639.4 -6643.6 L 40504.4 -6643.6 L 40504.4 -6923.6 L 40504.4 -7203.6 L 40639.4 -7203.6 L 40774.4 -7203.6 L 40774.4 -7550.6 C 40775.4 -7930.6 40786.4 -8160.6 40809.4 -8267.6 C 40851.4 -8464.6 40968.4 -8590.6 41152.4 -8638.6 C 41302.4 -8676.6 41606.4 -8674.6 41854.4 -8632.6 C 41923.4 -8621.6 41980.4 -8610.6 41981.4 -8609.6 C 41985.4 -8605.6 41928.4 -8094.6 41923.4 -8088.6 C 41920.4 -8085.6 41899.4 -8089.6 41877.4 -8097.6 C 41854.4 -8105.6 41802.4 -8117.6 41761.4 -8124.6 C 41671.4 -8139.6 41623.4 -8129.6 41581.4 -8085.6 C 41540.4 -8042.6 41534.4 -7980.6 41534.4 -7565.6 L 41534.4 -7203.6 L 41744.4 -7203.6 L 41954.4 -7203.6 L 41954.4 -6923.6 L 41954.4 -6643.6 L 41744.4 -6643.6 L 41534.4 -6643.6 L 41532.4 -6270.6 L 41529.4 -5898.6 L 41154.4 -6090.6 Z"
            style="fill: rgb(138, 22, 2);" />
        <path
            d="M 2399.41 -6615.6 C 2138.41 -6644.6 1932.41 -6738.6 1766.41 -6901.6 C 1572.41 -7092.6 1494.41 -7307.6 1494.41 -7648.6 C 1494.41 -7881.6 1523.41 -8022.6 1600.41 -8162.6 C 1713.41 -8367.6 1894.41 -8519.6 2115.41 -8593.6 C 2347.41 -8672.6 2792.41 -8691.6 3054.41 -8634.6 C 3372.41 -8564.6 3621.41 -8356.6 3733.41 -8063.6 C 3779.41 -7946.6 3780.41 -7935.6 3752.41 -7929.6 C 3725.41 -7923.6 3096.41 -7853.6 3073.41 -7853.6 C 3063.41 -7853.6 3043.41 -7881.6 3021.41 -7925.6 C 2957.41 -8055.6 2856.41 -8133.6 2723.41 -8154.6 C 2520.41 -8187.6 2335.41 -8071.6 2273.41 -7872.6 C 2261.41 -7834.6 2250.41 -7766.6 2247.41 -7703.6 C 2233.41 -7439.6 2321.41 -7245.6 2493.41 -7160.6 C 2555.41 -7130.6 2565.41 -7128.6 2669.41 -7128.6 C 2769.41 -7128.6 2785.41 -7131.6 2842.41 -7157.6 C 2914.41 -7191.6 2966.41 -7243.6 3001.41 -7319.6 C 3017.41 -7355.6 3032.41 -7373.6 3043.41 -7373.6 C 3077.41 -7373.6 3727.41 -7284.6 3732.41 -7278.6 C 3742.41 -7269.6 3674.41 -7111.6 3626.41 -7033.6 C 3443.41 -6734.6 3131.41 -6600.6 2627.41 -6604.6 C 2546.41 -6605.6 2443.41 -6610.6 2399.41 -6615.6 Z"
            style="fill: rgb(138, 22, 2);" />
        <path
            d="M 7898.41 -6617.6 C 7714.41 -6652.6 7600.41 -6717.6 7450.41 -6872.6 C 7407.41 -6916.6 7370.41 -6953.6 7368.41 -6953.6 C 7366.41 -6953.6 7364.41 -6883.6 7364.41 -6798.6 L 7364.41 -6643.6 L 7014.41 -6643.6 L 6664.41 -6643.6 L 6664.41 -7633.6 L 6664.41 -8623.6 L 7038.41 -8623.6 L 7412.41 -8623.6 L 7417.41 -8075.6 C 7421.41 -7495.6 7425.41 -7449.6 7472.41 -7356.6 C 7499.41 -7304.6 7581.41 -7229.6 7630.41 -7212.6 C 7651.41 -7205.6 7699.41 -7199.6 7735.41 -7199.6 C 7853.41 -7201.6 7932.41 -7261.6 7972.41 -7380.6 C 7986.41 -7422.6 7988.41 -7507.6 7992.41 -8025.6 L 7995.41 -8623.6 L 8375.41 -8623.6 L 8754.41 -8623.6 L 8754.41 -7975.6 C 8753.41 -7303.6 8748.41 -7180.6 8713.41 -7054.6 C 8653.41 -6831.6 8511.41 -6686.6 8299.41 -6628.6 C 8216.41 -6606.6 7991.41 -6599.6 7898.41 -6617.6 Z"
            style="fill: rgb(138, 22, 2);" />
        <path
            d="M 11289.4 -6615.6 C 11028.4 -6644.6 10822.4 -6738.6 10656.4 -6901.6 C 10463.4 -7092.6 10384.4 -7308.6 10384.4 -7648.6 C 10384.4 -7977.6 10451.4 -8165.6 10638.4 -8362.6 C 10822.4 -8555.6 11049.4 -8641.6 11428.4 -8663.6 C 11699.4 -8678.6 11939.4 -8651.6 12101.4 -8587.6 C 12340.4 -8493.6 12532.4 -8301.6 12623.4 -8063.6 C 12669.4 -7946.6 12670.4 -7935.6 12642.4 -7929.6 C 12615.4 -7923.6 11986.4 -7853.6 11963.4 -7853.6 C 11953.4 -7853.6 11933.4 -7881.6 11910.4 -7928.6 C 11846.4 -8057.6 11748.4 -8132.6 11613.4 -8154.6 C 11457.4 -8179.6 11306.4 -8116.6 11220.4 -7990.6 C 11169.4 -7914.6 11143.4 -7827.6 11137.4 -7703.6 C 11124.4 -7439.6 11211.4 -7245.6 11383.4 -7160.6 C 11445.4 -7130.6 11455.4 -7128.6 11559.4 -7128.6 C 11659.4 -7128.6 11675.4 -7131.6 11732.4 -7157.6 C 11804.4 -7191.6 11856.4 -7243.6 11891.4 -7319.6 C 11907.4 -7355.6 11922.4 -7373.6 11933.4 -7373.6 C 11966.4 -7373.6 12617.4 -7284.6 12622.4 -7279.6 C 12633.4 -7267.6 12557.4 -7097.6 12504.4 -7015.6 C 12315.4 -6725.6 12015.4 -6600.6 11517.4 -6604.6 C 11436.4 -6605.6 11333.4 -6610.6 11289.4 -6615.6 Z"
            style="fill: rgb(138, 22, 2);" />
        <path
            d="M 13794.4 -6609.6 C 13692.4 -6618.6 13534.4 -6646.6 13454.4 -6670.6 C 13254.4 -6727.6 13107.4 -6852.6 13036.4 -7025.6 C 13004.4 -7104.6 12977.4 -7200.6 12985.4 -7208.6 C 12991.4 -7213.6 13631.4 -7283.6 13676.4 -7283.6 C 13699.4 -7283.6 13708.4 -7275.6 13728.4 -7234.6 C 13780.4 -7132.6 13833.4 -7093.6 13953.4 -7067.6 C 14084.4 -7040.6 14230.4 -7054.6 14285.4 -7100.6 C 14323.4 -7133.6 14342.4 -7170.6 14355.4 -7240.6 C 14363.4 -7284.6 14363.4 -7298.6 14352.4 -7304.6 C 14326.4 -7321.6 14097.4 -7393.6 13994.4 -7417.6 C 13936.4 -7431.6 13799.4 -7460.6 13689.4 -7483.6 C 13448.4 -7532.6 13351.4 -7557.6 13259.4 -7595.6 C 13030.4 -7689.6 12924.4 -7847.6 12924.4 -8093.6 C 12924.4 -8263.6 12964.4 -8363.6 13079.4 -8479.6 C 13156.4 -8557.6 13248.4 -8608.6 13361.4 -8637.6 C 13518.4 -8678.6 13800.4 -8674.6 13977.4 -8629.6 C 14128.4 -8591.6 14221.4 -8540.6 14371.4 -8418.6 L 14403.4 -8391.6 L 14414.4 -8450.6 C 14421.4 -8482.6 14438.4 -8533.6 14452.4 -8563.6 L 14479.4 -8618.6 L 14838.4 -8621.6 C 15177.4 -8623.6 15196.4 -8622.6 15189.4 -8606.6 C 15184.4 -8596.6 15165.4 -8547.6 15145.4 -8498.6 L 15109.4 -8408.6 L 15103.4 -7808.6 C 15097.4 -7126.6 15098.4 -7137.6 15009.4 -6956.6 C 14914.4 -6764.6 14742.4 -6663.6 14439.4 -6623.6 C 14357.4 -6612.6 13875.4 -6602.6 13794.4 -6609.6 Z M 14364.4 -7760.6 C 14363.4 -7937.6 14331.4 -8035.6 14245.4 -8116.6 C 14146.4 -8211.6 14044.4 -8248.6 13904.4 -8241.6 C 13806.4 -8236.6 13769.4 -8220.6 13721.4 -8160.6 C 13680.4 -8109.6 13672.4 -8026.6 13703.4 -7965.6 C 13744.4 -7884.6 13818.4 -7848.6 14097.4 -7769.6 C 14203.4 -7739.6 14300.4 -7710.6 14314.4 -7704.6 C 14361.4 -7685.6 14364.4 -7689.6 14364.4 -7760.6 Z"
            style="fill: rgb(138, 22, 2);" />
        <path
            d="M 19416.4 -6614.6 C 19041.4 -6665.6 18764.4 -6850.6 18618.4 -7148.6 C 18534.4 -7320.6 18519.4 -7396.6 18520.4 -7643.6 C 18520.4 -7833.6 18522.4 -7855.6 18547.4 -7947.6 C 18581.4 -8072.6 18637.4 -8189.6 18712.4 -8289.6 C 18897.4 -8535.6 19120.4 -8640.6 19508.4 -8662.6 C 19672.4 -8672.6 19911.4 -8661.6 20039.4 -8638.6 C 20151.4 -8618.6 20291.4 -8572.6 20362.4 -8531.6 C 20453.4 -8479.6 20561.4 -8387.6 20626.4 -8305.6 C 20698.4 -8215.6 20758.4 -8124.6 20750.4 -8116.6 C 20747.4 -8113.6 20580.4 -8095.6 20379.4 -8077.6 L 20012.4 -8042.6 L 19944.4 -8107.6 C 19852.4 -8194.6 19792.4 -8217.6 19664.4 -8218.6 C 19582.4 -8218.6 19561.4 -8214.6 19512.4 -8191.6 C 19434.4 -8155.6 19369.4 -8092.6 19335.4 -8019.6 C 19309.4 -7964.6 19284.4 -7875.6 19284.4 -7838.6 C 19284.4 -7825.6 19386.4 -7823.6 20040.4 -7823.6 L 20796.4 -7823.6 L 20791.4 -7645.6 C 20781.4 -7310.6 20705.4 -7090.6 20536.4 -6911.6 C 20390.4 -6757.6 20222.4 -6672.6 19974.4 -6628.6 C 19860.4 -6608.6 19523.4 -6600.6 19416.4 -6614.6 Z M 19772.4 -7068.6 C 19904.4 -7107.6 20000.4 -7241.6 20021.4 -7411.6 L 20027.4 -7463.6 L 19655.4 -7463.6 C 19232.4 -7463.6 19273.4 -7474.6 19299.4 -7365.6 C 19335.4 -7214.6 19419.4 -7115.6 19552.4 -7067.6 C 19602.4 -7049.6 19709.4 -7050.6 19772.4 -7068.6 Z"
            style="fill: rgb(138, 22, 2);" />
        <path
            d="M 24909.4 -6610.6 C 24841.4 -6619.6 24755.4 -6646.6 24684.4 -6680.6 C 24624.4 -6709.6 24589.4 -6736.6 24505.4 -6819.6 C 24447.4 -6876.6 24399.4 -6923.6 24397.4 -6923.6 C 24395.4 -6923.6 24394.4 -6860.6 24394.4 -6783.6 L 24394.4 -6643.6 L 24039.4 -6643.6 L 23684.4 -6643.6 L 23684.4 -8008.6 L 23684.4 -9373.6 L 24069.4 -9373.6 L 24454.4 -9373.6 L 24454.4 -8908.6 L 24454.4 -8443.6 L 24517.4 -8494.6 C 24595.4 -8558.6 24736.4 -8626.6 24834.4 -8648.6 C 24935.4 -8671.6 25125.4 -8671.6 25224.4 -8648.6 C 25481.4 -8589.6 25684.4 -8409.6 25784.4 -8152.6 C 25874.4 -7920.6 25888.4 -7547.6 25819.4 -7278.6 C 25750.4 -7015.6 25603.4 -6799.6 25423.4 -6696.6 C 25294.4 -6623.6 25079.4 -6587.6 24909.4 -6610.6 Z M 24899.4 -7187.6 C 25000.4 -7235.6 25071.4 -7340.6 25095.4 -7477.6 C 25112.4 -7575.6 25102.4 -7790.6 25076.4 -7869.6 C 25040.4 -7983.6 24959.4 -8067.6 24860.4 -8094.6 C 24771.4 -8118.6 24644.4 -8081.6 24572.4 -8009.6 C 24485.4 -7924.6 24451.4 -7820.6 24451.4 -7638.6 C 24451.4 -7440.6 24490.4 -7324.6 24584.4 -7240.6 C 24645.4 -7185.6 24698.4 -7165.6 24784.4 -7164.6 C 24833.4 -7163.6 24862.4 -7169.6 24899.4 -7187.6 Z"
            style="fill: rgb(138, 22, 2);" />
        <path
            d="M 27427.4 -6614.6 C 27350.4 -6627.6 27222.4 -6677.6 27160.4 -6718.6 C 27130.4 -6738.6 27067.4 -6795.6 27020.4 -6844.6 L 26934.4 -6934.6 L 26934.4 -6789.6 L 26934.4 -6643.6 L 26584.4 -6643.6 L 26234.4 -6643.6 L 26234.4 -8008.6 L 26234.4 -9373.6 L 26614.4 -9373.6 L 26994.4 -9373.6 L 26994.4 -8908.6 L 26994.4 -8442.6 L 27057.4 -8493.6 C 27135.4 -8557.6 27256.4 -8617.6 27359.4 -8644.6 C 27464.4 -8671.6 27656.4 -8673.6 27764.4 -8648.6 C 28087.4 -8574.6 28305.4 -8331.6 28379.4 -7963.6 C 28401.4 -7856.6 28409.4 -7590.6 28395.4 -7466.6 C 28347.4 -7057.6 28137.4 -6740.6 27848.4 -6644.6 C 27730.4 -6605.6 27556.4 -6592.6 27427.4 -6614.6 Z M 27434.4 -7184.6 C 27459.4 -7195.6 27499.4 -7223.6 27522.4 -7246.6 C 27610.4 -7331.6 27644.4 -7438.6 27644.4 -7634.6 C 27644.4 -7827.6 27603.4 -7960.6 27523.4 -8027.6 C 27459.4 -8081.6 27414.4 -8098.6 27334.4 -8097.6 C 27240.4 -8097.6 27175.4 -8071.6 27111.4 -8005.6 C 27024.4 -7915.6 26994.4 -7821.6 26994.4 -7638.6 C 26995.4 -7392.6 27052.4 -7266.6 27196.4 -7193.6 C 27272.4 -7155.6 27363.4 -7152.6 27434.4 -7184.6 Z"
            style="fill: rgb(138, 22, 2);" />
        <path
            d="M 29584.4 -6613.6 C 29094.4 -6674.6 28757.4 -6985.6 28689.4 -7440.6 C 28670.4 -7566.6 28670.4 -7723.6 28689.4 -7842.6 C 28749.4 -8207.6 28982.4 -8497.6 29303.4 -8602.6 C 29460.4 -8653.6 29702.4 -8675.6 29963.4 -8662.6 C 30338.4 -8643.6 30560.4 -8555.6 30748.4 -8352.6 C 30813.4 -8282.6 30921.4 -8126.6 30911.4 -8117.6 C 30907.4 -8113.6 30740.4 -8095.6 30539.4 -8076.6 L 30174.4 -8042.6 L 30121.4 -8096.6 C 29932.4 -8290.6 29616.4 -8253.6 29500.4 -8024.6 C 29471.4 -7969.6 29440.4 -7848.6 29449.4 -7833.6 C 29453.4 -7827.6 29741.4 -7823.6 30211.4 -7823.6 L 30967.4 -7823.6 L 30961.4 -7675.6 C 30950.4 -7425.6 30917.4 -7273.6 30839.4 -7116.6 C 30706.4 -6847.6 30473.4 -6686.6 30129.4 -6627.6 C 30021.4 -6609.6 29690.4 -6600.6 29584.4 -6613.6 Z M 29975.4 -7085.6 C 30047.4 -7118.6 30099.4 -7171.6 30135.4 -7248.6 C 30164.4 -7308.6 30197.4 -7447.6 30186.4 -7458.6 C 30177.4 -7466.6 29456.4 -7464.6 29450.4 -7455.6 C 29441.4 -7440.6 29473.4 -7310.6 29499.4 -7257.6 C 29527.4 -7201.6 29601.4 -7121.6 29648.4 -7096.6 C 29745.4 -7045.6 29878.4 -7041.6 29975.4 -7085.6 Z"
            style="fill: rgb(138, 22, 2);" />
        <path
            d="M 33798.4 -6617.6 C 33704.4 -6635.6 33663.4 -6649.6 33584.4 -6689.6 C 33500.4 -6731.6 33465.4 -6757.6 33372.4 -6850.6 L 33294.4 -6927.6 L 33294.4 -6785.6 L 33294.4 -6643.6 L 32939.4 -6643.6 L 32584.4 -6643.6 L 32584.4 -7633.6 L 32584.4 -8623.6 L 32964.4 -8623.6 L 33344.4 -8623.6 L 33344.4 -8085.6 C 33345.4 -7492.6 33349.4 -7434.6 33402.4 -7340.6 C 33507.4 -7153.6 33756.4 -7145.6 33852.4 -7326.6 L 33879.4 -7378.6 L 33882.4 -8000.6 L 33885.4 -8623.6 L 34264.4 -8623.6 L 34644.4 -8623.6 L 34644.4 -8065.6 C 34644.4 -7474.6 34647.4 -7435.6 34693.4 -7345.6 C 34747.4 -7239.6 34880.4 -7177.6 34992.4 -7205.6 C 35050.4 -7219.6 35142.4 -7307.6 35164.4 -7368.6 C 35175.4 -7400.6 35179.4 -7526.6 35181.4 -8015.6 L 35185.4 -8623.6 L 35565.4 -8623.6 L 35944.4 -8623.6 L 35944.4 -8010.6 C 35943.4 -7356.6 35937.4 -7195.6 35904.4 -7068.6 C 35857.4 -6883.6 35757.4 -6750.6 35613.4 -6679.6 C 35492.4 -6620.6 35431.4 -6608.6 35254.4 -6608.6 C 35075.4 -6609.6 35000.4 -6624.6 34887.4 -6679.6 C 34813.4 -6716.6 34640.4 -6852.6 34602.4 -6904.6 L 34580.4 -6933.6 L 34543.4 -6874.6 C 34465.4 -6751.6 34349.4 -6665.6 34209.4 -6627.6 C 34126.4 -6605.6 33891.4 -6599.6 33798.4 -6617.6 Z"
            style="fill: rgb(138, 22, 2);" />
        <path
            d="M 37164.4 -6609.6 C 37054.4 -6620.6 36864.4 -6657.6 36793.4 -6682.6 C 36623.4 -6742.6 36500.4 -6846.6 36435.4 -6984.6 C 36393.4 -7071.6 36349.4 -7213.6 36364.4 -7213.6 C 36368.4 -7213.6 36520.4 -7229.6 36700.4 -7248.6 C 36881.4 -7267.6 37042.4 -7283.6 37057.4 -7283.6 C 37080.4 -7283.6 37088.4 -7276.6 37104.4 -7239.6 C 37160.4 -7108.6 37303.4 -7043.6 37509.4 -7055.6 C 37663.4 -7065.6 37743.4 -7142.6 37732.4 -7271.6 L 37729.4 -7308.6 L 37589.4 -7355.6 C 37506.4 -7383.6 37349.4 -7423.6 37204.4 -7453.6 C 36808.4 -7536.6 36693.4 -7567.6 36590.4 -7617.6 C 36413.4 -7703.6 36329.4 -7822.6 36304.4 -8021.6 C 36267.4 -8310.6 36435.4 -8553.6 36728.4 -8633.6 C 36937.4 -8691.6 37283.4 -8671.6 37482.4 -8589.6 C 37556.4 -8560.6 37669.4 -8487.6 37729.4 -8432.6 C 37754.4 -8409.6 37776.4 -8392.6 37778.4 -8394.6 C 37780.4 -8396.6 37787.4 -8422.6 37793.4 -8452.6 C 37799.4 -8482.6 37816.4 -8533.6 37831.4 -8565.6 L 37857.4 -8623.6 L 38215.4 -8623.6 L 38574.4 -8623.6 L 38565.4 -8600.6 C 38560.4 -8588.6 38546.4 -8556.6 38534.4 -8528.6 C 38483.4 -8411.6 38482.4 -8396.6 38475.4 -7763.6 L 38468.4 -7168.6 L 38436.4 -7073.6 C 38378.4 -6898.6 38293.4 -6792.6 38156.4 -6720.6 C 38002.4 -6639.6 37845.4 -6614.6 37474.4 -6609.6 C 37328.4 -6607.6 37189.4 -6607.6 37164.4 -6609.6 Z M 37734.4 -7802.6 C 37734.4 -7989.6 37686.4 -8089.6 37554.4 -8173.6 C 37448.4 -8241.6 37270.4 -8266.6 37179.4 -8224.6 C 37114.4 -8195.6 37054.4 -8111.6 37054.4 -8048.6 C 37054.4 -8016.6 37079.4 -7958.6 37106.4 -7927.6 C 37152.4 -7874.6 37234.4 -7838.6 37442.4 -7778.6 C 37545.4 -7749.6 37647.4 -7718.6 37669.4 -7710.6 C 37736.4 -7685.6 37734.4 -7682.6 37734.4 -7802.6 Z"
            style="fill: rgb(138, 22, 2);" />
        <path
            d="M 43146.4 -6614.6 C 42959.4 -6639.6 42762.4 -6713.6 42630.4 -6807.6 C 42491.4 -6906.6 42358.4 -7077.6 42295.4 -7236.6 C 42241.4 -7371.6 42229.4 -7450.6 42230.4 -7648.6 C 42231.4 -7809.6 42233.4 -7838.6 42257.4 -7926.6 C 42324.4 -8177.6 42482.4 -8383.6 42711.4 -8517.6 C 42849.4 -8598.6 43026.4 -8648.6 43227.4 -8662.6 C 43727.4 -8697.6 44105.4 -8545.6 44325.4 -8221.6 C 44444.4 -8046.6 44504.4 -7811.6 44491.4 -7571.6 C 44476.4 -7307.6 44393.4 -7100.6 44233.4 -6929.6 C 44084.4 -6770.6 43907.4 -6678.6 43653.4 -6628.6 C 43552.4 -6608.6 43252.4 -6600.6 43146.4 -6614.6 Z M 43497.4 -7156.6 C 43601.4 -7203.6 43675.4 -7301.6 43711.4 -7436.6 C 43731.4 -7510.6 43734.4 -7751.6 43716.4 -7825.6 C 43681.4 -7967.6 43611.4 -8068.6 43510.4 -8121.6 C 43464.4 -8145.6 43448.4 -8148.6 43359.4 -8148.6 C 43270.4 -8148.6 43254.4 -8145.6 43209.4 -8121.6 C 43182.4 -8107.6 43138.4 -8073.6 43113.4 -8046.6 C 43015.4 -7945.6 42978.4 -7813.6 42987.4 -7598.6 C 42990.4 -7509.6 42998.4 -7449.6 43012.4 -7406.6 C 43084.4 -7178.6 43302.4 -7066.6 43497.4 -7156.6 Z"
            style="fill: rgb(138, 22, 2);" />
        <path
            d="M 45509.4 -6614.6 C 45149.4 -6652.6 44900.4 -6812.6 44831.4 -7049.6 C 44743.4 -7350.6 44902.4 -7649.6 45202.4 -7747.6 C 45318.4 -7785.6 45417.4 -7808.6 45659.4 -7853.6 C 46030.4 -7922.6 46087.4 -7943.6 46119.4 -8027.6 C 46136.4 -8072.6 46136.4 -8073.6 46113.4 -8120.6 C 46067.4 -8212.6 45950.4 -8260.6 45796.4 -8250.6 C 45651.4 -8241.6 45561.4 -8183.6 45500.4 -8056.6 L 45473.4 -8001.6 L 45426.4 -8007.6 C 45400.4 -8010.6 45233.4 -8027.6 45054.4 -8044.6 C 44876.4 -8060.6 44728.4 -8076.6 44726.4 -8078.6 C 44718.4 -8085.6 44748.4 -8174.6 44784.4 -8248.6 C 44898.4 -8484.6 45093.4 -8602.6 45444.4 -8649.6 C 45584.4 -8667.6 45939.4 -8670.6 46074.4 -8653.6 C 46478.4 -8603.6 46729.4 -8422.6 46805.4 -8125.6 C 46866.4 -7884.6 46767.4 -7637.6 46556.4 -7509.6 C 46432.4 -7434.6 46262.4 -7387.6 45974.4 -7348.6 C 45636.4 -7302.6 45565.4 -7284.6 45514.4 -7229.6 C 45495.4 -7208.6 45489.4 -7190.6 45489.4 -7158.6 C 45489.4 -7102.6 45516.4 -7065.6 45580.4 -7033.6 C 45622.4 -7011.6 45642.4 -7008.6 45729.4 -7008.6 C 45823.4 -7008.6 45834.4 -7010.6 45897.4 -7041.6 C 45961.4 -7073.6 46024.4 -7135.6 46024.4 -7167.6 C 46025.4 -7203.6 46034.4 -7203.6 46394.4 -7168.6 C 46588.4 -7148.6 46750.4 -7131.6 46752.4 -7128.6 C 46760.4 -7121.6 46725.4 -7047.6 46675.4 -6959.6 C 46569.4 -6778.6 46398.4 -6668.6 46159.4 -6627.6 C 46050.4 -6608.6 45640.4 -6600.6 45509.4 -6614.6 Z"
            style="fill: rgb(138, 22, 2);" />
        <path
            d="M 48016.4 -6614.6 C 47829.4 -6639.6 47631.4 -6713.6 47500.4 -6807.6 C 47417.4 -6867.6 47307.4 -6983.6 47250.4 -7070.6 C 47147.4 -7229.6 47105.4 -7375.6 47097.4 -7598.6 C 47086.4 -7918.6 47170.4 -8149.6 47374.4 -8354.6 C 47560.4 -8543.6 47789.4 -8640.6 48096.4 -8662.6 C 48613.4 -8698.6 49003.4 -8533.6 49215.4 -8189.6 C 49387.4 -7909.6 49411.4 -7483.6 49270.4 -7179.6 C 49133.4 -6881.6 48887.4 -6699.6 48523.4 -6628.6 C 48422.4 -6608.6 48122.4 -6600.6 48016.4 -6614.6 Z M 48367.4 -7156.6 C 48435.4 -7187.6 48504.4 -7254.6 48539.4 -7322.6 C 48582.4 -7408.6 48597.4 -7493.6 48597.4 -7643.6 C 48596.4 -7854.6 48557.4 -7971.6 48461.4 -8060.6 C 48381.4 -8134.6 48343.4 -8148.6 48229.4 -8148.6 C 48140.4 -8148.6 48124.4 -8145.6 48079.4 -8121.6 C 47926.4 -8040.6 47854.4 -7884.6 47854.4 -7640.6 C 47854.4 -7459.6 47890.4 -7335.6 47969.4 -7245.6 C 48068.4 -7131.6 48233.4 -7094.6 48367.4 -7156.6 Z"
            style="fill: rgb(138, 22, 2);" />
        <path
            d="M 5424.41 -7633.6 L 5424.41 -8623.6 L 5799.41 -8623.6 L 6174.41 -8623.6 L 6174.41 -7633.6 L 6174.41 -6643.6 L 5799.41 -6643.6 L 5424.41 -6643.6 L 5424.41 -7633.6 Z"
            style="fill: rgb(138, 22, 2);" />
        <path
            d="M 9234.41 -7633.6 L 9234.41 -8623.6 L 9609.41 -8623.6 L 9984.41 -8623.6 L 9984.41 -7633.6 L 9984.41 -6643.6 L 9609.41 -6643.6 L 9234.41 -6643.6 L 9234.41 -7633.6 Z"
            style="fill: rgb(138, 22, 2);" />
        <path
            d="M 22444.4 -7633.6 L 22444.4 -8623.6 L 22824.4 -8623.6 L 23204.4 -8623.6 L 23204.4 -7633.6 L 23204.4 -6643.6 L 22824.4 -6643.6 L 22444.4 -6643.6 L 22444.4 -7633.6 Z"
            style="fill: rgb(138, 22, 2);" />
    </g>
</svg>