<?xml version="1.0" encoding="utf-8"?>
<svg xmlns="http://www.w3.org/2000/svg" viewBox="226.172 -158.5442 549.8004 402.993" width="549.8px"
	height="402.993px">
	<g id="Layer_1"
		transform="matrix(1.9393310546875, 0, 0, 1.9393310546875, -1614.0228271484375, -1147.87890625)"
		style="">
		<g transform="matrix(1, 0, 0, 1, 935.681213, 495.442291)">
			<path fill="#F39800"
				d="M280.9,48.6C237,83,195.6,89.8,195.6,89.8l-4.7,13.6c53.6-13,78.7-35.9,86.3-43.6 C279.3,53.4,280.9,48.6,280.9,48.6S278.7,55.2,280.9,48.6z" />
			<path fill="#83B81A"
				d="M161.4,51.1c75.7-7.2,107.2-22.6,135.3-36.4c0,0-0.7,1.8-3.4,9.1c-6.2,5.3-50.8,34.7-140.7,42.6L161.4,51.1 z" />
			<path fill="#E32119"
				d="M22.7,78.2l-9.5,16.2C166.3,98.6,220.5,77.5,247,62.3c1.3-2.1,4.4-8.3,5.5-10.6 C198.7,74.9,118.4,84.9,22.7,78.2z" />
			<path fill="#0098D1"
				d="M77.4,169.6l-2.3,10.7c-8.8,1.1-22.6,1.2-22.6,1.2c-24.6,0-33.7-12.4-29.5-32c4.2-19.7,19.4-33,43.8-33 c0,0,14.8,0.6,24.9,1.5l-5.5,10.4h-22c-13.1,0-18.8,10.5-21.1,21.5c-2.3,10.6-1.3,19.7,12,19.7L77.4,169.6z" />
			<path fill="#0098D1"
				d="M137.6,155c-4.2,1.3-9.5,1.7-15.6,1.9c-4,0.1-10.3,0-13.4,0l-5.1,23.7H84.3L97.6,118h30.7 c8.2,0,15.2,0.4,20.2,3.6c5.6,3.6,7.5,9.3,6.1,16C152.9,145.6,146.9,152,137.6,155z M123,128.5h-8.4l-3.8,17.9h7.6 c8.1,0,15.6-1.7,17.2-9.2C137,130.1,130.8,128.5,123,128.5z" />
			<path fill="#0098D1"
				d="M234.8,163.8c-0.7,3.3,1.3,6,4.5,6h27.4l-6.1,10.7h-39.3c-5.2,0-8.5-4.4-7.4-9.8l11.3-52.7h19.4 L234.8,163.8z" />
			<path fill="#0098D1"
				d="M179.7,143.6h30l-2.3,10.6h-30l-5.6,26.5h-18.9l11.2-52.7c1.2-5.4,6.3-9.9,11.6-9.9h43.7l-6.1,10.7h-24.6 c-3.2,0-6.4,2.7-7.1,6L179.7,143.6z" />
			<g>
				<g>
					<g>
						<path fill="#0098D1"
							d="M87.6,206h13.5l-1,4.6H86.6l-1.5,6.9h13.6l-1,4.6H75.5l5.1-22.8c0.5-2.4,2.8-4.3,5.2-4.3h19.7l-2.7,4.7 H91.6c-1.4,0-2.9,1.2-3.2,2.6L87.6,206z" />
						<path fill="#0098D1"
							d="M150.7,206h13.5l-1,4.6h-13.5l-1.5,6.9h13.5l-1,4.6h-22.1l5.1-22.8c0.5-2.4,2.8-4.3,5.2-4.3h19.7 l-2.7,4.7h-11.1c-1.4,0-2.9,1.2-3.2,2.6L150.7,206z" />
						<path fill="#0098D1" d="M227.9,222.1l6-27.1h8.8l-6,27.1H227.9z" />
						<path fill="#0098D1"
							d="M121.7,222.1l-6.7-22.4l-5,22.4h-7.5l6-27.1h12.1l6.6,22.5l5-22.5h7.5l-6,27.1H121.7z" />
						<path fill="#0098D1"
							d="M193.3,222.1h-9.5l-3.5-10.3h-3.6l-2.3,10.3h-8.6l6-27.1h13.8c3.7,0,6.8,0.2,9.1,1.6 c2.5,1.6,3.4,4,2.7,6.9c-0.6,2.9-3.4,6.3-9.1,7.3L193.3,222.1z M183.2,199.5h-3.8l-1.7,7.7h3.4c3.6,0,7-0.7,7.7-4 C189.5,200.2,186.7,199.5,183.2,199.5z" />
						<path fill="#0098D1"
							d="M226.3,207.2l-3.3,14.8c-6.2,0.5-11.7,0.5-11.7,0.5c-11.1,0-15.1-5.4-13.3-13.8 c1.9-8.5,8.7-14.3,19.7-14.3c0,0,6.7,0.3,11.2,0.6l-2.6,4.5h-9.7c-6,0-8.4,4.1-9.5,9.3c-1,4.6,0.8,9,6.3,9 c1.7,0,1.9-0.5,1.9-0.5l2.3-10.2H226.3z" />
						<path fill="#0098D1"
							d="M264.6,222.1l-1.3-6.1h-11.8l-4,6.1h-8.4l18.9-27.1h8.6l7.2,27.1H264.6z M261.1,199.6l-7,12.1h8.6 L261.1,199.6z" />
					</g>
				</g>
			</g>
		</g>
	</g>
</svg>