<?xml version="1.0" encoding="utf-8"?>
<svg xmlns="http://www.w3.org/2000/svg" viewBox="106.7353 126.2441 90.5417 41.3969" width="90.5417px" height="41.3969px">
  <g id="svg-1" transform="matrix(1.746190071105957, 0, 0, 1.746190071105957, -395.0883178710938, -57.311908721923835)" style="">
    <path d="M 322.291 109.655 C 316.571 114.248 311.177 115.158 311.177 115.158 L 310.559 116.98 C 317.545 115.242 320.817 112.179 321.813 111.156 C 322.084 110.301 322.29 109.656 322.29 109.656 L 322.291 109.655 Z" style="stroke-width: 1; fill: rgb(242, 138, 33);"/>
    <path d="M 306.719 109.983 C 316.583 109.027 320.691 106.966 324.351 105.118 C 324.351 105.118 324.267 105.36 323.914 106.34 C 323.101 107.048 317.287 110.981 305.575 112.042 L 306.721 109.983 L 306.72 109.983 L 306.719 109.983 Z" style="stroke-width: 1; fill: rgb(130, 189, 71);"/>
    <path d="M 288.638 113.611 L 287.405 115.78 C 307.361 116.341 314.423 113.518 317.87 111.48 C 318.04 111.202 318.437 110.364 318.584 110.059 C 311.577 113.165 301.118 114.512 288.637 113.612 L 288.638 113.611 Z" style="stroke-width: 1; fill: rgb(230, 30, 41);"/>
    <path d="M 290.321 122.109 C 290.792 122.109 291.101 122.218 291.315 122.318 L 291.55 121.309 C 291.251 121.167 290.759 121.057 290.278 121.057 C 288.451 121.057 287.382 122.307 287.382 123.907 C 287.382 125.507 288.44 126.636 290.064 126.636 C 290.716 126.636 291.261 126.483 291.539 126.35 L 291.357 125.353 C 291.1 125.462 290.78 125.56 290.32 125.56 C 289.423 125.56 288.728 124.935 288.728 123.839 C 288.717 122.863 289.316 122.106 290.32 122.106 L 290.321 122.109 Z" style="stroke-width: 1; fill: rgb(15, 173, 226);"/>
    <path d="M 294.775 125.596 C 294.219 125.596 293.749 125.202 293.621 124.653 C 293.589 124.533 293.578 124.412 293.578 124.28 L 293.578 123.457 C 293.578 123.348 293.599 123.228 293.631 123.117 C 293.759 122.525 294.261 122.12 294.807 122.12 C 295.651 122.12 296.1 122.887 296.1 123.831 C 296.1 124.883 295.608 125.596 294.774 125.596 L 294.775 125.596 Z M 295.246 121.057 C 294.455 121.057 293.846 121.397 293.461 122 L 293.44 122 L 293.376 121.178 L 292.222 121.178 C 292.243 121.682 292.265 122.252 292.265 122.954 L 292.265 128.687 L 293.579 128.687 L 293.579 125.924 L 293.6 125.924 C 293.867 126.352 294.412 126.636 295.064 126.636 C 296.25 126.636 297.437 125.704 297.437 123.775 C 297.437 122.108 296.443 121.056 295.246 121.056 L 295.246 121.057 Z" style="stroke-width: 1; fill: rgb(15, 173, 226);"/>
    <path d="M 299.025 119.129 C 298.577 119.567 298.395 120.258 298.395 120.948 L 298.395 121.178 L 297.69 121.178 L 297.69 122.186 L 298.395 122.186 L 298.395 126.516 L 299.709 126.516 L 299.709 122.186 L 300.841 122.186 L 300.841 121.178 L 299.698 121.178 L 299.698 120.904 C 299.698 120.246 299.923 119.687 300.574 119.687 C 300.809 119.687 300.99 119.731 301.129 119.786 L 301.225 118.745 C 301.011 118.668 300.734 118.613 300.381 118.613 C 299.932 118.613 299.409 118.756 299.024 119.129 L 299.025 119.129 Z" style="stroke-width: 1; fill: rgb(15, 173, 226);"/>
    <path d="M 302.978 118.733 L 301.653 118.733 L 301.653 126.517 L 302.978 126.517 L 302.978 118.733 L 302.978 118.733 Z" style="stroke-width: 1; fill: rgb(15, 173, 226);"/>
    <path d="M 307.735 123.688 C 307.049 123.396 306.743 123.184 306.743 122.702 C 306.743 122.294 307.022 121.881 307.647 121.881 C 308.013 121.881 308.337 121.981 308.61 122.179 L 308.674 122.226 L 308.917 121.686 L 308.873 121.654 C 308.582 121.442 308.165 121.321 307.731 121.321 C 306.676 121.321 306.123 122.054 306.123 122.778 C 306.123 123.409 306.565 123.902 307.435 124.24 C 308.182 124.552 308.447 124.84 308.447 125.343 C 308.447 125.902 308.025 126.249 307.345 126.249 C 306.868 126.249 306.456 126.034 306.253 125.906 L 306.188 125.865 L 305.959 126.417 L 306.006 126.448 C 306.366 126.679 306.842 126.811 307.312 126.811 C 308.361 126.811 309.066 126.195 309.066 125.279 C 309.066 124.363 308.392 123.957 307.733 123.688 L 307.735 123.688 Z" style="stroke-width: 1; fill: rgb(15, 173, 226);"/>
    <path d="M 311.9 126.26 L 311.889 126.26 C 310.892 126.26 310.14 125.323 310.14 124.082 C 310.14 122.987 310.693 121.882 311.93 121.882 C 313.228 121.882 313.699 123.179 313.699 124.05 C 313.699 125.31 312.925 126.261 311.898 126.261 L 311.9 126.26 Z M 311.942 121.319 C 310.771 121.319 309.51 122.194 309.51 124.113 C 309.51 125.708 310.48 126.821 311.869 126.821 L 311.88 126.821 C 313.061 126.821 314.332 125.947 314.332 124.028 C 314.332 122.408 313.372 121.32 311.942 121.32 L 311.942 121.319 Z" style="stroke-width: 1; fill: rgb(15, 173, 226);"/>
    <path d="M 315.782 118.7 L 315.151 118.7 L 315.151 126.704 L 315.782 126.704 L 315.782 118.7 L 315.782 118.7 Z" style="stroke-width: 1; fill: rgb(15, 173, 226);"/>
    <path d="M 321.024 125.386 L 321.024 121.437 L 320.393 121.437 L 320.393 124.701 C 320.393 124.873 320.361 125.067 320.305 125.241 C 320.109 125.701 319.619 126.238 318.885 126.238 C 318.038 126.238 317.626 125.634 317.626 124.391 L 317.626 121.437 L 316.996 121.437 L 316.996 124.487 C 316.996 126.593 318.237 126.821 318.771 126.821 C 319.57 126.821 320.139 126.376 320.443 125.911 L 320.47 126.703 L 321.073 126.703 L 321.067 126.631 C 321.038 126.269 321.026 125.884 321.026 125.385 L 321.024 125.386 Z" style="stroke-width: 1; fill: rgb(15, 173, 226);"/>
    <path d="M 324.42 121.892 C 324.871 121.892 325.249 121.987 325.576 122.182 L 325.639 122.22 L 325.867 121.683 L 325.822 121.652 C 325.594 121.492 325.074 121.32 324.472 121.32 C 322.918 121.32 321.832 122.473 321.832 124.125 C 321.832 125.548 322.648 126.601 323.873 126.778 L 323.414 127.549 L 323.516 127.561 C 324.045 127.624 324.264 127.748 324.272 127.987 C 324.272 128.241 324.035 128.295 323.837 128.295 C 323.626 128.295 323.461 128.254 323.318 128.166 L 323.249 128.124 L 323.079 128.618 L 323.126 128.645 C 323.304 128.748 323.586 128.825 323.784 128.825 C 324.428 128.825 324.829 128.484 324.829 127.934 C 324.829 127.5 324.502 127.244 324.165 127.168 L 324.393 126.813 C 325.098 126.795 325.606 126.572 325.794 126.475 L 325.846 126.448 L 325.655 125.916 L 325.59 125.948 C 325.296 126.093 324.922 126.241 324.378 126.241 C 323.233 126.241 322.463 125.374 322.463 124.083 C 322.463 122.994 323.068 121.893 324.42 121.893 L 324.42 121.892 Z" style="stroke-width: 1; fill: rgb(15, 173, 226);"/>
    <path d="M 327.826 120.587 L 327.831 120.525 C 327.844 120.334 327.894 120.106 328.048 120.106 C 328.153 120.106 328.283 120.175 328.479 120.281 L 328.497 120.29 C 328.704 120.407 328.908 120.512 329.112 120.512 C 329.427 120.512 329.802 120.345 329.802 119.547 L 329.802 119.48 L 329.331 119.48 L 329.327 119.543 C 329.304 119.919 329.166 119.919 329.1 119.919 C 328.984 119.919 328.865 119.854 328.69 119.755 C 328.644 119.732 328.601 119.71 328.561 119.69 C 328.368 119.591 328.215 119.513 328.036 119.513 C 327.857 119.513 327.715 119.578 327.598 119.7 C 327.429 119.877 327.339 120.169 327.345 120.523 L 327.346 120.588 L 327.825 120.588 L 327.826 120.587 Z" style="stroke-width: 1; fill: rgb(15, 173, 226);"/>
    <path d="M 328.547 126.26 L 328.536 126.26 C 327.539 126.26 326.787 125.323 326.787 124.082 C 326.787 122.987 327.34 121.882 328.577 121.882 C 329.875 121.882 330.346 123.179 330.346 124.05 C 330.346 125.31 329.572 126.261 328.545 126.261 L 328.547 126.26 Z M 328.589 121.319 C 327.418 121.319 326.157 122.194 326.157 124.113 C 326.157 125.708 327.127 126.821 328.516 126.821 L 328.527 126.821 C 329.708 126.821 330.98 125.947 330.98 124.028 C 330.98 122.408 330.019 121.32 328.59 121.32 L 328.589 121.319 Z" style="stroke-width: 1; fill: rgb(15, 173, 226);"/>
    <path d="M 332.041 123.544 C 332.156 122.76 332.635 121.881 333.634 121.881 C 334.042 121.881 334.371 122.008 334.612 122.26 C 334.996 122.66 335.056 123.25 335.06 123.544 L 332.041 123.543 L 332.041 123.544 Z M 333.697 121.319 C 332.312 121.319 331.38 122.463 331.38 124.166 C 331.38 125.748 332.344 126.811 333.78 126.811 C 334.691 126.811 335.207 126.573 335.386 126.471 L 335.433 126.444 L 335.269 125.923 L 335.201 125.956 C 334.904 126.102 334.535 126.238 333.843 126.238 C 332.691 126.238 332.022 125.454 332.001 124.083 L 335.678 124.083 L 335.689 124.03 C 335.712 123.927 335.712 123.849 335.712 123.706 C 335.712 123.462 335.655 121.319 333.697 121.319 L 333.697 121.319 Z" style="stroke-width: 1; fill: rgb(15, 173, 226);"/>
    <path d="M 337.902 123.688 C 337.216 123.396 336.91 123.184 336.91 122.702 C 336.91 122.294 337.189 121.881 337.814 121.881 C 338.181 121.881 338.505 121.981 338.777 122.179 L 338.841 122.226 L 339.084 121.686 L 339.04 121.654 C 338.748 121.442 338.332 121.321 337.897 121.321 C 336.842 121.321 336.289 122.054 336.289 122.778 C 336.289 123.409 336.732 123.902 337.601 124.24 C 338.348 124.552 338.613 124.84 338.613 125.343 C 338.613 125.902 338.191 126.249 337.511 126.249 C 337.034 126.249 336.622 126.034 336.419 125.906 L 336.354 125.865 L 336.126 126.417 L 336.173 126.448 C 336.533 126.679 337.009 126.811 337.479 126.811 C 338.528 126.811 339.233 126.195 339.233 125.279 C 339.233 124.363 338.559 123.957 337.9 123.688 L 337.902 123.688 Z" style="stroke-width: 1; fill: rgb(15, 173, 226);"/>
  </g>
</svg>