<svg width="170" height="48" viewBox="0 0 170 48" fill="none" xmlns="http://www.w3.org/2000/svg">
<g clip-path="url(#clip0_5083_10753)">
<path d="M-0.0283045 27.8736C0.169668 29.3175 0.595467 30.7048 1.51463 31.9649C3.16754 34.2304 5.74905 35.6853 8.16871 36.9909C12.1125 39.1183 21.9294 42.3281 22.1337 47.9984H22.4228V44.6204C22.2044 38.5385 18.6518 35.7199 13.4983 33.016C10.7958 31.5972 7.96131 30.3701 5.40024 28.6969C4.25325 27.9474 3.13769 27.1163 2.21067 26.0982C1.72046 25.5609 1.27737 24.9921 0.928564 24.3511C0.870429 24.2443 0.818579 24.1249 0.7683 24.0007C0.598609 24.3919 0.306364 25.1524 0.11939 25.9867C-0.0220197 26.6151 -0.103723 27.2844 -0.0298757 27.8705L-0.0283045 27.8736Z" fill="url(#paint0_linear_5083_10753)"/>
<path style="mix-blend-mode:multiply" d="M-0.0283045 27.8736C0.169668 29.3175 0.595467 30.7048 1.51463 31.9649C3.16754 34.2304 5.74905 35.6853 8.16871 36.9909C12.1125 39.1183 21.9294 42.3281 22.1337 47.9984H22.4228V44.6204C22.2044 38.5385 18.6518 35.7199 13.4983 33.016C10.7958 31.5972 7.96131 30.3701 5.40024 28.6969C4.25325 27.9474 3.13769 27.1163 2.21067 26.0982C1.72046 25.5609 1.27737 24.9921 0.928564 24.3511C0.870429 24.2443 0.818579 24.1249 0.7683 24.0007C0.598609 24.3919 0.306364 25.1524 0.11939 25.9867C-0.0220197 26.6151 -0.103723 27.2844 -0.0298757 27.8705L-0.0283045 27.8736Z" fill="url(#paint1_linear_5083_10753)"/>
<path d="M2.03144 22.1044C2.93017 21.0737 4.01117 20.2332 5.14401 19.4743C7.68152 17.7743 10.505 16.5426 13.2043 15.1364C18.4553 12.3995 22.1995 9.60597 22.4226 3.37953V0H22.1335C21.9309 5.66554 12.1029 8.8911 8.16388 11.0043C5.7505 12.2989 3.158 13.7726 1.51137 16.0288C-0.205968 18.3855 -0.207539 21.1932 -0.205968 23.9945C-0.205968 25.3033 -0.201254 26.6105 -0.0284206 27.8737C-0.202825 26.5115 0.472796 24.6874 0.769756 24.0024C0.821606 23.8751 0.875027 23.751 0.934733 23.641C1.23955 23.0817 1.6135 22.5805 2.03144 22.1013V22.1044Z" fill="url(#paint2_linear_5083_10753)"/>
<path d="M4.48885 34.7851C3.22245 33.888 2.25144 32.9657 1.52082 31.9649C0.708507 30.8525 0.223002 29.5783 -0.00953762 27.9554C-0.0849558 27.4369 -0.121094 26.9561 -0.121094 26.4848C-0.121094 25.4352 0.186864 24.5837 0.488537 23.8908C0.548243 23.7384 0.606378 23.6096 0.666084 23.5027C0.955187 22.9733 1.315 22.4673 1.79893 21.9127C2.59711 20.9983 3.60425 20.1452 4.96807 19.2324C6.80796 17.999 8.81911 16.9998 10.7643 16.0351C11.5232 15.658 12.3009 15.2715 13.0567 14.8787C18.6392 11.969 22.2153 9.15191 22.4227 3.37324L22.4164 0H22.4022L22.4101 3.37796C22.1964 9.30274 18.8686 12.1748 13.1918 15.1348C12.4329 15.5292 11.6536 15.9173 10.8994 16.2912C8.95738 17.2559 6.95408 18.2504 5.1299 19.4727C3.78808 20.3714 2.79822 21.2073 2.01733 22.1028C1.54753 22.6433 1.19873 23.1304 0.919049 23.6426C0.865628 23.7384 0.812207 23.8578 0.755643 24.0024C0.464969 24.6732 0.111446 25.7086 0.111446 26.7047C0.111446 27.0897 0.0894488 27.4227 0.174294 28.0135C0.400549 29.5878 0.911193 30.9515 1.69366 32.0246C2.40542 32.9987 3.24916 33.9068 4.48885 34.7851Z" fill="url(#paint3_linear_5083_10753)"/>
<path d="M0.930031 24.3528C0.983452 24.4518 1.04473 24.5492 1.10444 24.6466C1.03373 24.5287 0.961455 24.4093 0.90332 24.3025L0.930031 24.3528Z" fill="url(#paint4_linear_5083_10753)"/>
<path d="M22.4227 44.6221C22.2106 38.7209 18.9896 35.8991 13.4982 33.0177C12.6843 32.5903 11.8453 32.174 11.0346 31.7718L10.9953 31.7529C9.11925 30.8228 7.1788 29.8612 5.40176 28.6986C3.99552 27.7795 3.01352 26.9782 2.2122 26.0999C1.74869 25.5924 1.3936 25.1227 1.10449 24.6482C1.42659 25.1871 1.85553 25.8093 2.3269 26.3262C3.14393 27.2233 4.13693 28.0104 5.56359 28.9437C7.35635 30.1142 8.98255 31.0789 10.8712 32.0137L10.9057 32.031C11.7165 32.4332 12.5539 32.848 13.3647 33.2738C18.7634 36.105 21.9278 38.8718 22.1352 44.6269L22.1289 47.8555V48.0001H22.4243V47.8555H22.418L22.4243 44.6221H22.4227Z" fill="url(#paint5_linear_5083_10753)"/>
<path d="M22.1067 16.8835C21.9135 22.2804 12.8052 25.4651 9.01539 27.4322C3.76126 30.1581 0.0170576 32.9752 -0.206055 39.1938V42.5717H0.0830485C0.276308 37.1764 9.38463 33.9902 13.1744 32.0231C18.4285 29.2972 22.1712 26.4785 22.3943 20.2615V16.8835H22.1052H22.1067Z" fill="url(#paint6_linear_5083_10753)"/>
<path d="M0.0898844 42.5717H-0.199219V42.4272C0.0961693 37.8127 6.54757 34.8166 10.815 32.8338C11.6572 32.4426 12.4302 32.0843 13.0414 31.7654C18.6239 28.8682 22.1937 26.0559 22.4011 20.2552L22.3948 16.882H22.3885L22.3948 20.2599C22.1811 26.2083 18.8533 29.0756 13.1749 32.0215C12.5575 32.342 11.7813 32.7034 10.9595 33.0852C6.7314 35.0491 0.374274 38.0013 0.0898844 42.435V42.5702V42.5717Z" fill="url(#paint7_linear_5083_10753)"/>
<path d="M47.0741 18.8489L46.6169 19.746C46.4095 19.6533 44.4329 18.7358 42.2081 18.7358C37.9846 18.7358 34.9035 22.065 34.9035 25.8562C34.9035 29.6474 37.8872 32.9719 42.0007 32.9719C43.4697 32.9719 45.3081 32.5838 47.0081 31.0897V27.0723H42.4595V26.062H48.0844V31.5045C46.0434 33.4998 43.9741 34.0764 42.0007 34.0764C37.3137 34.0764 33.7109 30.4251 33.7109 25.8562C33.7109 21.2873 37.3829 17.636 42.0949 17.636C43.7463 17.636 45.6522 18.1388 47.0757 18.8489H47.0741Z" fill="#EA1B23"/>
<path d="M52.4476 21.9724L52.6534 24.2239C53.2976 22.6606 54.7667 21.9504 56.4668 21.9504V23.1665C54.4917 23.1665 52.7241 24.2019 52.7241 26.7047V33.8927H51.5771V21.974H52.4492L52.4476 21.9724Z" fill="#EA1B23"/>
<path d="M60.3243 21.9488V28.9514C60.3243 31.3851 61.3362 32.9688 64.2272 32.9688C66.3201 32.9688 68.1097 31.2044 68.1097 29.0661V21.9473H69.2583V33.8879H68.3862L68.2024 31.5674C67.3759 33.2658 65.7922 34.0702 64.0465 34.0702C60.7376 34.0702 59.1758 32.2555 59.1758 29.1085V21.9457H60.3259L60.3243 21.9488Z" fill="#EA1B23"/>
<path d="M84.8509 27.9207C84.8509 31.1793 82.5302 34.0733 79.0829 34.0733C77.1566 34.0733 75.1109 33.0867 74.3992 31.206V37.7938H73.249V21.9488H74.1462L74.3316 24.7266C75.2492 22.6118 77.3609 21.7634 79.0814 21.7634C82.4375 21.7634 84.8493 24.5412 84.8493 27.9207H84.8509ZM74.2845 27.9207C74.2845 30.8588 76.349 33.0395 78.9698 33.0395C81.5906 33.0395 83.6992 30.7677 83.6992 27.9207C83.6992 25.0738 81.633 22.7972 78.9698 22.7972C76.3066 22.7972 74.2845 25.0503 74.2845 27.9207Z" fill="#EA1B23"/>
<path d="M93.4128 21.765C96.8129 21.765 99.5453 24.4532 99.5453 27.9223C99.5453 31.3914 96.8129 34.0749 93.4128 34.0749C90.0127 34.0749 87.3291 31.3427 87.3291 27.9223C87.3291 24.5019 90.0599 21.765 93.4128 21.765ZM88.4745 27.9208C88.4745 30.7221 90.6554 33.0395 93.4128 33.0395C96.1703 33.0395 98.3967 30.7221 98.3967 27.9208C98.3967 25.1194 96.1939 22.7973 93.4128 22.7973C90.6318 22.7973 88.4745 25.0707 88.4745 27.9208Z" fill="#EA1B23"/>
<path d="M113.965 17.8168V20.8019H105.789V24.7518H112.749V27.6458H105.789V33.8911H102.572V17.8168H113.965Z" fill="#EA1B23"/>
<path d="M119.128 17.0814V30.653C119.128 30.9515 119.292 31.0662 119.545 31.0662C119.868 31.0662 120.165 31.0442 120.648 30.9986V33.4983C120.555 33.5706 119.314 33.8911 118.349 33.8911C116.767 33.8911 115.984 32.8573 115.984 31.4574V17.0814H119.128Z" fill="#EA1B23"/>
<path d="M127.971 21.7195C131.668 21.7195 133.457 24.5884 133.457 27.759C133.457 28.5634 133.344 29.1368 133.344 29.1368H125.328C125.468 30.8368 126.937 31.4794 128.362 31.4794C129.787 31.4794 130.956 31.1133 131.737 30.7677L132.791 33.0867C131.597 33.7717 129.9 34.1189 128.291 34.1189C124.684 34.1189 122.044 31.6852 122.044 28.0339C122.044 24.3826 124.431 21.7195 127.969 21.7195H127.971ZM130.472 26.9325C130.406 25.6238 129.9 24.4768 128.153 24.4768C126.659 24.4768 125.584 25.3268 125.282 26.9325H130.472Z" fill="#EA1B23"/>
<path d="M138.67 21.9489V28.9514C138.67 30.3545 139.383 31.0866 140.921 31.0866C142.183 31.0866 143.217 30.4456 143.217 28.9986V21.9489H146.43V33.8895H143.973L143.582 32.5336C142.801 33.569 141.679 34.1189 140.185 34.1189C137.086 34.1189 135.504 32.3058 135.504 29.1117V21.9489H138.67Z" fill="#EA1B23"/>
<path d="M151.803 22.0651L152.217 23.9489C152.95 22.4328 154.192 21.9504 156.305 21.9504V25.2106H155.914C153.89 25.2106 152.444 25.9914 152.444 28.565V33.8927H149.277V22.0667H151.802L151.803 22.0651Z" fill="#EA1B23"/>
<path d="M160.115 21.9488L163.056 30.5603H163.126L166.155 21.9488H169.486L164.364 34.6468C163.47 36.8511 162.596 37.7922 160.645 37.7922C159.815 37.7922 158.967 37.6776 158.071 37.401L158.624 34.5321C159.034 34.6013 160.026 34.7599 160.55 34.7395C161.034 34.7395 161.261 34.2792 161.426 33.8204L156.784 21.9473H160.115V21.9488Z" fill="#EA1B23"/>
</g>
<defs>
<linearGradient id="paint0_linear_5083_10753" x1="-0.0565863" y1="36.0011" x2="22.4228" y2="36.0011" gradientUnits="userSpaceOnUse">
<stop stop-color="#3E0000"/>
<stop offset="0.03" stop-color="#540304"/>
<stop offset="0.1" stop-color="#79090C"/>
<stop offset="0.17" stop-color="#980F13"/>
<stop offset="0.24" stop-color="#AF1218"/>
<stop offset="0.31" stop-color="#C0151C"/>
<stop offset="0.4" stop-color="#CA171E"/>
<stop offset="0.5" stop-color="#CE181F"/>
<stop offset="0.6" stop-color="#CA171E"/>
<stop offset="0.69" stop-color="#C0151C"/>
<stop offset="0.76" stop-color="#AF1218"/>
<stop offset="0.83" stop-color="#980F13"/>
<stop offset="0.9" stop-color="#79090C"/>
<stop offset="0.97" stop-color="#540304"/>
<stop offset="1" stop-color="#3E0000"/>
</linearGradient>
<linearGradient id="paint1_linear_5083_10753" x1="7.44281" y1="28.8619" x2="12.4248" y2="37.7264" gradientUnits="userSpaceOnUse">
<stop stop-color="#3E0000" stop-opacity="0"/>
<stop offset="0.35" stop-color="#230000"/>
<stop offset="1" stop-color="#3E0000" stop-opacity="0"/>
</linearGradient>
<linearGradient id="paint2_linear_5083_10753" x1="-0.205968" y1="13.9376" x2="22.4226" y2="13.9376" gradientUnits="userSpaceOnUse">
<stop stop-color="#9E0B0F"/>
<stop offset="0.04" stop-color="#B71015"/>
<stop offset="0.1" stop-color="#CE151B"/>
<stop offset="0.16" stop-color="#DF1920"/>
<stop offset="0.22" stop-color="#E91B23"/>
<stop offset="0.3" stop-color="#ED1C24"/>
<stop offset="0.36" stop-color="#ED1F25"/>
<stop offset="0.4" stop-color="#ED2929"/>
<stop offset="0.45" stop-color="#EE3A31"/>
<stop offset="0.49" stop-color="#F0513B"/>
<stop offset="0.5" stop-color="#F15B40"/>
<stop offset="0.56" stop-color="#F0573E"/>
<stop offset="0.6" stop-color="#F04D3A"/>
<stop offset="0.65" stop-color="#EF3C32"/>
<stop offset="0.69" stop-color="#ED2528"/>
<stop offset="0.7" stop-color="#ED1C24"/>
<stop offset="0.78" stop-color="#E91B23"/>
<stop offset="0.84" stop-color="#DF1920"/>
<stop offset="0.9" stop-color="#CE151B"/>
<stop offset="0.96" stop-color="#B71015"/>
<stop offset="1" stop-color="#9E0B0F"/>
</linearGradient>
<linearGradient id="paint3_linear_5083_10753" x1="1.47212" y1="27.2782" x2="7.60748" y2="22.2126" gradientUnits="userSpaceOnUse">
<stop stop-color="#ED1B34"/>
<stop offset="1" stop-color="#9E0B0F"/>
</linearGradient>
<linearGradient id="paint4_linear_5083_10753" x1="0.90332" y1="24.4753" x2="1.10444" y2="24.4753" gradientUnits="userSpaceOnUse">
<stop stop-color="#9E0B0F"/>
<stop offset="1" stop-color="#ED1B34"/>
</linearGradient>
<linearGradient id="paint5_linear_5083_10753" x1="1.10449" y1="36.3234" x2="22.4227" y2="36.3234" gradientUnits="userSpaceOnUse">
<stop stop-color="#9E0B0F"/>
<stop offset="1" stop-color="#ED1B34"/>
</linearGradient>
<linearGradient id="paint6_linear_5083_10753" x1="-0.206055" y1="29.7276" x2="22.3943" y2="29.7276" gradientUnits="userSpaceOnUse">
<stop stop-color="#9E0B0F"/>
<stop offset="0.04" stop-color="#B71015"/>
<stop offset="0.1" stop-color="#CE151B"/>
<stop offset="0.16" stop-color="#DF1920"/>
<stop offset="0.22" stop-color="#E91B23"/>
<stop offset="0.3" stop-color="#ED1C24"/>
<stop offset="0.36" stop-color="#ED1F25"/>
<stop offset="0.4" stop-color="#ED2929"/>
<stop offset="0.45" stop-color="#EE3A31"/>
<stop offset="0.49" stop-color="#F0513B"/>
<stop offset="0.5" stop-color="#F15B40"/>
<stop offset="0.56" stop-color="#F0573E"/>
<stop offset="0.6" stop-color="#F04D3A"/>
<stop offset="0.65" stop-color="#EF3C32"/>
<stop offset="0.69" stop-color="#ED2528"/>
<stop offset="0.7" stop-color="#ED1C24"/>
<stop offset="0.78" stop-color="#E91B23"/>
<stop offset="0.84" stop-color="#DF1920"/>
<stop offset="0.9" stop-color="#CE151B"/>
<stop offset="0.96" stop-color="#B71015"/>
<stop offset="1" stop-color="#9E0B0F"/>
</linearGradient>
<linearGradient id="paint7_linear_5083_10753" x1="0.146448" y1="36.185" x2="11.4589" y2="29.5984" gradientUnits="userSpaceOnUse">
<stop stop-color="#ED1B34"/>
<stop offset="1" stop-color="#9E0B0F"/>
</linearGradient>
<clipPath id="clip0_5083_10753">
<rect width="169.691" height="48" fill="white" transform="translate(-0.206055)"/>
</clipPath>
</defs>
</svg>
