<svg xmlns="http://www.w3.org/2000/svg" height="54.264" width="145.351">
    <defs>
        <style>.diagnoson-negativo_svg__cls-1{fill:#fff}</style>
    </defs>
    <g data-name="Grupo 6273" id="diagnoson-negativo_svg__Grupo_6273"
        transform="translate(-.999 -1)">
        <g data-name="Grupo 6255" id="diagnoson-negativo_svg__Grupo_6255"
            transform="translate(82.974 1)">
            <path class="diagnoson-negativo_svg__cls-1"
                d="M229.213 23.206a55.791 55.791 0 00-18.467-17.895l-.237-.143-.071-.023A32.3 32.3 0 00194.784 1a28.486 28.486 0 00-10.152 1.828 26.387 26.387 0 00-8.838 5.543c-.2.186-.38.355-.539.514a27.146 27.146 0 00-7.955 18.167h-.024v2.012l.015.147h.005a27.143 27.143 0 007.95 18.166c.16.159.338.331.538.513a26.358 26.358 0 008.84 5.544 28.466 28.466 0 0010.152 1.829 32.309 32.309 0 0015.652-4.144h.028l.282-.17a55.794 55.794 0 0018.467-17.894 9.139 9.139 0 000-9.853"
                data-name="Caminho 5253" id="diagnoson-negativo_svg__Caminho_5253"
                transform="translate(-167.279 -1)"></path>
            <path
                d="M229.388 24.692a54.863 54.863 0 00-18.142-17.576h-.014c-11.136-6.339-24.854-5.545-33.8 2.939q-.262.237-.514.49a26.18 26.18 0 00-7.692 18.446v.253a26.188 26.188 0 007.692 18.449q.253.251.514.488c8.948 8.483 22.666 9.28 33.8 2.939h.014a54.85 54.85 0 0018.143-17.577 8.185 8.185 0 000-8.851"
                data-name="Caminho 5254" fill="#008ed9" id="diagnoson-negativo_svg__Caminho_5254"
                transform="translate(-168.267 -1.987)"></path>
            <path class="diagnoson-negativo_svg__cls-1"
                d="M216.6 48.779a1.116 1.116 0 01-.33.7 3.353 3.353 0 01-.906.7 5.548 5.548 0 01-1.325.522 6.085 6.085 0 01-1.591.2 3.109 3.109 0 01-2.4-.788 2.742 2.742 0 01-.7-1.909 2.5 2.5 0 01.532-1.649 3.913 3.913 0 011.368-1.047 7.833 7.833 0 011.956-.6 17.724 17.724 0 012.1-.223c.278-.017.47-.008.676-.015s.418 0 .611 0zm5.214-11.321a5.688 5.688 0 00-1.479-2.539 6.3 6.3 0 00-2.695-1.52 14.17 14.17 0 00-4.044-.6 17.686 17.686 0 00-3.269.305 13.407 13.407 0 00-2.6.785 7.41 7.41 0 00-2.019 1.123 1.539 1.539 0 00-.684 1.17 3.205 3.205 0 00.345 1.289 3.391 3.391 0 00.517.834 1.36 1.36 0 001.589.217c.811-.387.891-.418 1.728-.754a9.646 9.646 0 013.464-.6 4.789 4.789 0 012.94.716 2.9 2.9 0 01.905 2.413v.775c-.3 0-.578 0-.949.012-.338.007-.685.007-1.042.037a31.726 31.726 0 00-3.418.352 12.384 12.384 0 00-3.612 1.159 8.037 8.037 0 00-2.709 2.258 5.817 5.817 0 00-1.086 3.657 6.9 6.9 0 00.62 3.06 5.628 5.628 0 001.589 2 6.32 6.32 0 002.167 1.08 9.024 9.024 0 002.388.326 9.547 9.547 0 003.887-.707 8.006 8.006 0 002.564-1.72 2.862 2.862 0 001.068 1.789 3.852 3.852 0 002.377.619 1.743 1.743 0 001.9-1.869V41.016a12.78 12.78 0 00-.443-3.558"
                data-name="Caminho 5255" id="diagnoson-negativo_svg__Caminho_5255"
                transform="translate(-185.81 -17.181)"></path>
            <path class="diagnoson-negativo_svg__cls-1"
                d="M265.022 46.788a9.079 9.079 0 00-.078-1.2 1.481 1.481 0 00-1.473-1.323h-3.832a1.217 1.217 0 01-1.218-1.221v-3.83a1.482 1.482 0 00-1.324-1.474 9.092 9.092 0 00-2.4 0 1.483 1.483 0 00-1.322 1.474v3.83a1.218 1.218 0 01-1.218 1.221h-3.834a1.479 1.479 0 00-1.47 1.323 9.049 9.049 0 000 2.4 1.479 1.479 0 001.47 1.322h3.834a1.219 1.219 0 011.218 1.219v3.834a1.481 1.481 0 001.325 1.467 9.263 9.263 0 002.4 0 1.48 1.48 0 001.324-1.472v-3.834a1.218 1.218 0 011.218-1.219h3.832a1.481 1.481 0 001.473-1.322 9.067 9.067 0 00.078-1.2"
                data-name="Caminho 5256" id="diagnoson-negativo_svg__Caminho_5256"
                transform="translate(-207.729 -19.655)"></path>
        </g>
        <path
            fill="#008ed9"
            d="M65.02 32.784c1.9 0 3.257.038 4.075.119a5.749 5.749 0 012.995 1.113 3.909 3.909 0 011.379 2.116 13.306 13.306 0 01.3 3.133h-4.133V38.4a2.434 2.434 0 00-.423-1.654q-.5-.571-2.567-.571h-1.683a5.687 5.687 0 00-3.162.571 1.6 1.6 0 00-.552.76 4.535 4.535 0 00-.167 1.408 8.115 8.115 0 00.186 1.54 1.189 1.189 0 00.641.747 3.792 3.792 0 001.036.342 11.773 11.773 0 001.455.176c.557.043 1.088.076 1.588.11 1.7.1 3.095.242 4.193.4a5.57 5.57 0 012.534.9 3.173 3.173 0 01.841 1.031A4.917 4.917 0 0174 45.427a7.946 7.946 0 01.162 1.136c.019.319.042.856.071 1.6a9.137 9.137 0 01-.5 3.162 4.41 4.41 0 01-1.469 2.092c-1 .742-3.048 1.113-6.133 1.113h-1.544a23.733 23.733 0 01-3.542-.228 4.925 4.925 0 01-2.53-1.117 3.933 3.933 0 01-1.115-1.506 5.785 5.785 0 01-.433-1.755c-.052-.6-.081-1.384-.081-2.353h4.089a2.628 2.628 0 01-.056.6 9 9 0 00.171 1.5 1.621 1.621 0 00.48.837 2.173 2.173 0 001.093.509 14.132 14.132 0 001.93.176 4.453 4.453 0 01.885.062c1.041-.048 1.83-.1 2.353-.167a3.481 3.481 0 001.322-.4Q70.1 50.1 70.1 48a3.057 3.057 0 00-.6-2.12 1.7 1.7 0 00-.561-.333 3.258 3.258 0 00-.689-.176 9.9 9.9 0 00-.87-.081l-1.193-.067q-1.141-.049-2.149-.1a25.215 25.215 0 01-1.925-.157 10.126 10.126 0 01-1.812-.394 4.913 4.913 0 01-1.5-.742Q57.117 42.593 57 39.15q0-3.593 1.626-5.025 1.682-1.34 6.39-1.34m-17.007.176q3.708 0 4.963 1.345 1.283 1.156 1.283 4.222a5.784 5.784 0 01-.889 3.566 3.85 3.85 0 01-2.164 1.17v.109a3.851 3.851 0 012.4.994 3.54 3.54 0 01.98 1.788 11.755 11.755 0 01.19 2.239q0 3.466-1.511 4.736-1.391 1.226-4.855 1.226h-11.12V32.96zm-.941 3.513h-5.674v5.444h5.62a10.361 10.361 0 001.337-.057 1.794 1.794 0 001.416-.942 4.512 4.512 0 00.381-2 3.307 3.307 0 00-.394-1.792 1.545 1.545 0 00-.87-.519 8.6 8.6 0 00-1.811-.138m-5.679 8.59v5.781h6.133a7.4 7.4 0 001.764-.167c.893-.323 1.345-1.2 1.345-2.624a3.786 3.786 0 00-.547-2.391 3.426 3.426 0 00-2.34-.6zm-19.118-12.1H28.3l7.3 21.4h-4.195l-1.365-4.027h-9.276l-1.369 4.022h-4.25l4.906-14.833zm-.6 14.264h7.389l-3.68-11.159h-.028zM1 32.96h4.136v17.882h10.041v3.513H1z"
            data-name="Caminho 5257" id="diagnoson-negativo_svg__Caminho_5257"
            transform="translate(0 -16.172)"></path>
    </g>
</svg>