<?xml version="1.0" encoding="utf-8"?>
<svg xmlns="http://www.w3.org/2000/svg" viewBox="-228.4707 464.5981 968.1 641.7718" width="968.1px"
	height="641.772px">
	<g
		transform="matrix(0.10000000149011613, 0, 0, -0.10000000149011613, -232.47071838378895, 1108.2060546875002)"
		fill="#000000" stroke="none">
		<path d="M40 3230 l0 -1610 145 0 145 0 0 1610 0 1610 -145 0 -145 0 0 -1610z"
			style="fill: rgb(93, 46, 136);" />
		<path d="M5030 3230 l0 -1610 145 0 145 0 0 1610 0 1610 -145 0 -145 0 0 -1610z"
			style="fill: rgb(93, 46, 136);" />
		<path d="M5460 4695 l0 -145 880 0 880 0 0 145 0 145 -880 0 -880 0 0 -145z"
			style="fill: rgb(93, 46, 136);" />
		<path d="M7530 3230 l0 -1610 145 0 145 0 0 1610 0 1610 -145 0 -145 0 0 -1610z"
			style="fill: rgb(93, 46, 136);" />
		<path d="M7960 4695 l0 -145 878 2 877 3 3 143 3 142 -881 0 -880 0 0 -145z"
			style="fill: rgb(93, 46, 136);" />
		<path
			d="M3418 4293 l-74 -158 571 -1150 c315 -632 596 -1198 626 -1257 l54 -108 157 0 c87 0 158 2 158 5 0 8 -1410 2825 -1413 2825 -2 0 -37 -71 -79 -157z"
			style="fill: rgb(93, 46, 136);" />
		<path d="M5460 3155 l0 -145 605 0 605 0 0 145 0 145 -605 0 -605 0 0 -145z"
			style="fill: rgb(93, 46, 136);" />
		<path d="M7950 3155 l0 -145 610 0 610 0 0 145 0 145 -610 0 -610 0 0 -145z"
			style="fill: rgb(93, 46, 136);" />
		<path
			d="M460 1765 l0 -145 510 0 510 0 70 140 c38 77 70 142 70 145 0 3 -261 5 -580 5 l-580 0 0 -145z"
			style="fill: rgb(93, 46, 136);" />
		<path
			d="M2160 1770 c-38 -77 -70 -142 -70 -145 0 -3 97 -5 215 -5 l215 0 0 145 0 145 -145 0 -145 0 -70 -140z"
			style="fill: rgb(93, 46, 136);" />
		<path d="M7960 1765 l0 -145 880 0 880 0 0 145 0 145 -880 0 -880 0 0 -145z"
			style="fill: rgb(93, 46, 136);" />
		<path
			d="M7474 1091 c-36 -22 -90 -88 -80 -98 16 -16 141 43 152 72 7 17 -12 45 -30 45 -6 0 -25 -9 -42 -19z"
			style="fill: rgb(93, 46, 136);" />
		<path
			d="M4415 944 c-91 -23 -141 -59 -178 -128 -29 -55 -31 -184 -3 -236 48 -91 118 -134 221 -134 78 0 130 21 176 71 50 53 64 92 64 178 0 110 -40 181 -126 225 -38 20 -120 32 -154 24z m115 -87 c85 -45 118 -172 67 -262 -25 -45 -92 -85 -142 -85 -17 0 -51 10 -75 23 -121 61 -121 260 0 324 55 29 95 29 150 0z"
			style="fill: rgb(93, 46, 136);" />
		<path
			d="M7352 932 c-96 -34 -151 -110 -160 -218 -8 -108 34 -192 121 -240 67 -37 169 -40 232 -7 90 48 130 117 130 228 0 86 -14 125 -64 178 -62 67 -168 91 -259 59z m158 -75 c121 -64 121 -263 0 -324 -24 -13 -58 -23 -75 -23 -17 0 -51 10 -75 23 -61 30 -90 82 -90 162 0 80 29 132 90 163 56 28 96 28 150 -1z"
			style="fill: rgb(93, 46, 136);" />
		<path
			d="M9415 941 c-73 -19 -142 -77 -169 -143 -26 -61 -21 -164 10 -227 80 -159 313 -174 416 -26 85 121 43 311 -82 372 -51 25 -130 36 -175 24z m112 -72 c139 -52 150 -271 17 -339 -132 -68 -266 56 -232 215 21 100 123 159 215 124z"
			style="fill: rgb(93, 46, 136);" />
		<path
			d="M2077 934 c-13 -13 -8 -459 5 -472 14 -14 275 -17 296 -3 8 4 12 19 10 32 -3 24 -5 24 -125 27 l-123 3 -2 207 -3 207 -25 3 c-14 2 -29 0 -33 -4z"
			style="fill: rgb(93, 46, 136);" />
		<path
			d="M2907 933 c-20 -33 -177 -459 -173 -470 7 -17 50 -17 64 0 6 7 20 38 32 70 l22 58 100 -3 100 -3 20 -55 c25 -68 35 -80 62 -80 52 1 50 8 -40 241 -48 123 -92 230 -97 237 -10 13 -83 17 -90 5z m85 -178 l36 -95 -74 0 c-41 0 -74 3 -74 6 0 15 65 184 71 184 3 0 22 -43 41 -95z"
			style="fill: rgb(93, 46, 136);" />
		<path
			d="M3527 925 c-15 -14 -17 -43 -17 -230 0 -187 2 -216 17 -230 14 -15 34 -17 142 -13 174 6 224 36 224 133 0 52 -24 93 -63 108 l-29 11 37 32 c31 26 37 38 37 72 0 97 -46 125 -211 130 -103 4 -123 2 -137 -13z m239 -63 c20 -13 35 -53 28 -75 -15 -49 -32 -57 -121 -57 l-83 0 0 70 0 70 83 0 c45 0 87 -4 93 -8z m14 -207 c39 -20 49 -68 23 -104 -23 -30 -52 -38 -145 -40 l-68 -1 0 80 0 80 80 0 c52 0 91 -5 110 -15z"
			style="fill: rgb(93, 46, 136);" />
		<path
			d="M5041 926 c-8 -9 -11 -82 -9 -242 l3 -229 30 0 30 0 3 93 3 92 28 0 c24 0 41 -15 101 -90 40 -49 81 -92 91 -95 25 -8 59 3 59 19 0 7 -29 47 -65 89 -36 42 -65 78 -65 80 0 2 18 9 39 16 74 22 113 99 91 180 -13 50 -46 76 -111 90 -74 16 -214 14 -228 -3z m244 -81 c32 -31 32 -75 1 -112 -22 -25 -31 -28 -105 -31 l-81 -4 0 86 0 86 80 0 c73 0 83 -3 105 -25z"
			style="fill: rgb(93, 46, 136);" />
		<path
			d="M5913 928 c-4 -7 -47 -112 -94 -233 -90 -230 -93 -249 -40 -243 22 3 30 14 52 68 l26 65 99 3 100 3 17 -49 c10 -27 25 -58 33 -70 17 -25 62 -29 70 -7 3 8 -34 117 -83 242 l-89 228 -41 3 c-26 2 -44 -2 -50 -10z m86 -177 c18 -46 30 -85 28 -88 -3 -2 -36 -3 -75 -1 l-70 3 35 93 c20 51 39 89 43 85 4 -4 22 -46 39 -92z"
			style="fill: rgb(93, 46, 136);" />
		<path
			d="M6492 931 c-8 -4 -12 -19 -10 -32 3 -23 7 -24 81 -27 l77 -3 0 -198 c0 -214 3 -226 52 -219 l23 3 3 207 2 207 83 3 c69 3 82 6 85 21 8 43 -10 47 -202 47 -99 0 -187 -4 -194 -9z"
			style="fill: rgb(93, 46, 136);" />
		<path
			d="M8047 925 c-15 -14 -17 -43 -17 -234 0 -235 2 -246 52 -239 22 3 23 8 26 96 l3 92 27 0 c22 -1 42 -19 105 -95 80 -98 108 -115 137 -80 10 12 1 29 -58 97 l-70 82 46 16 c62 20 92 64 92 135 0 38 -6 60 -21 79 -37 47 -75 59 -195 64 -94 4 -113 2 -127 -13z m227 -66 c33 -16 48 -60 34 -100 -14 -40 -58 -59 -138 -59 l-60 0 0 85 0 85 70 0 c38 0 80 -5 94 -11z"
			style="fill: rgb(93, 46, 136);" />
		<path
			d="M8794 927 c-2 -7 -3 -116 -2 -242 l3 -230 23 -3 c50 -7 52 4 52 242 0 159 -3 225 -12 234 -16 16 -57 15 -64 -1z"
			style="fill: rgb(93, 46, 136);" />
		<path
			d="M 1759.07 1600.03 L 1599.7 1952.82 L 2160.86 3084.54 C 2475.86 3716.64 3002.01 4782 3032.01 4840.9 L 3075.84 4929.24 L 3260.14 4929.24 L 3426.77 4929.98 C 3426.77 4929.98 1762.07 1600.03 1759.07 1600.03 Z"
			style="stroke-width: 0.1; fill: rgb(1, 173, 165); transform-box: fill-box; transform-origin: 50% 50%;"
			transform="matrix(-1, 0, 0, -1, 0.000636, 0.001343)" />
		<path
			d="M 1011.61 18.362 L 805.008 18.362 L 1541.45 1489.23 L 1753.14 1489.23 L 1011.61 18.362 Z"
			style="stroke-width: 0.1; fill: rgb(117, 160, 44); transform-box: fill-box; transform-origin: 50% 50%;"
			transform="matrix(-1, 0, 0, -1, -0.000552, -0.000593)" />
		<path
			d="M 3481.06 4959.34 L 3278.98 4960.39 L 4078.03 6562.34 L 4182.89 6353.71 L 3481.06 4959.34 Z"
			style="stroke-width: 0.1; fill: rgb(117, 160, 44); transform-origin: 3751.45px 5697.71px;"
			transform="matrix(-1, 0, 0, -1, 0.000301, -0.000318)" />
	</g>
</svg>