<?xml version="1.0" encoding="utf-8"?>
<!-- Generator: Adobe Illustrator 22.0.0, SVG Export Plug-In . SVG Version: 6.00 Build 0)  -->
<svg version="1.1" id="Layer_1" xmlns="http://www.w3.org/2000/svg" xmlns:xlink="http://www.w3.org/1999/xlink" x="0px" y="0px"
	 viewBox="0 0 129 20.3" enable-background="new 0 0 129 20.3" xml:space="preserve">
<g>
	<path d="M26.3,14.5l-5.9,0c-1,0-1.8-0.8-1.8-1.8c0-1,0.8-1.8,1.8-1.8l5.7,0l0.1,0L26.3,14.5z M24.6,3.5l-7.2,0l0,2.6
		c0.4,0,6.2,0,7.2,0c1,0,1.8,0.8,1.8,1.7l0,0.6l-5.9,0c-2.4,0-4.3,1.9-4.3,4.3c0,2.4,1.9,4.3,4.3,4.3l8.4,0l0-9.3
		C28.9,5.4,27,3.5,24.6,3.5"/>
	<path d="M46.4,3.4c2.4,0,4.3,1.9,4.3,4.3l0,9.3l-2.6,0l0-9.2c0-1-0.8-1.8-1.8-1.8l-4.5,0l0,11l-2.6,0l0-11l-4.2,0
		c-1,0-1.8,0.8-1.8,1.8l0,9.2l-2.6,0l0-9.3c0-2.4,1.9-4.3,4.3-4.3L46.4,3.4z"/>
	<path d="M56.2,3.4c-1.9,0-3.5,1.6-3.5,3.5c0,1.4,0.9,2.7,2.2,3.2c6.8,2.1,6.8,2.1,6.8,2.1c0.5,0.2,0.8,0.6,0.8,1.1
		c0,0.6-0.5,1.1-1.1,1.1l-8.7,0l0,2.6l8.7,0c2,0,3.7-1.7,3.7-3.7c0-1.5-0.9-2.9-2.3-3.4L59.9,9l-4-1.3c-0.4-0.1-0.6-0.5-0.6-0.8
		c0-0.5,0.4-0.9,0.9-0.9l7.5,0l0-2.6L56.2,3.4z"/>
	<path d="M87.7,13.5l0-3.5l0-2.3c0-2.4,1.9-4.3,4.3-4.3l4.4,0c2.4,0,4.3,1.9,4.3,4.3l0,2.6c0,0,0,6.4,0,6.6l-2.6,0
		c0-0.3,0-9.2,0-9.2c0-1-0.8-1.8-1.8-1.8l-4.4,0c-1,0-1.8,0.8-1.8,1.8l0,9.2l-2.6,0C87.8,16.7,87.7,13.5,87.7,13.5"/>
	<path d="M109.9,0.7l0,2.6c0,0,3.8,0,4.1,0l0,2.6l-4.1,0l0,6.7c0,1,0.8,1.8,1.8,1.8l3.6,0l0,2.6l-3.6,0c-2.4,0-4.3-1.9-4.3-4.3
		l0-2.6c0,0,0-8,0-9.2L109.9,0.7z"/>
	<rect x="102.8" y="3.3" transform="matrix(1 -1.833971e-03 1.833971e-03 1 -1.838079e-02 0.1909)" width="2.6" height="13.6"/>
	<path d="M126.5,8.6l-7.2,0l0-0.9c0-1,0.8-1.8,1.8-1.8l3.7,0c1,0,1.8,0.8,1.8,1.8L126.5,8.6z M129,7.6c0-2.4-1.9-4.3-4.3-4.3l-3.7,0
		c-2.4,0-4.3,1.9-4.3,4.3l0,4.9c0,2.4,1.9,4.3,4.3,4.3l6.7,0l0-2.6l-6.7,0c-1,0-1.8-0.8-1.8-1.8l0-1.4c0,0,9.5,0,9.8,0L129,7.6"/>
	<path d="M10.4,14.5c0.9,0,1.7-0.8,1.7-1.7c0-0.7-0.5-1.4-1.1-1.6L2.5,8.6C1,8,0,6.5,0,4.9c0-2.2,1.8-4,4-4l9.3,0l0,2.6L4,3.5
		c-0.7,0-1.4,0.6-1.4,1.4C2.6,5.5,3,6,3.5,6.2l4.3,1.4l4.1,1.3c1.6,0.6,2.7,2.2,2.7,3.9c0,2.3-1.9,4.3-4.2,4.3L0,17.1l0-2.6
		L10.4,14.5z"/>
	<path d="M77.1,15.1c-1.6,1.7-3.9,2.4-6,2.1c0.3,0.5,0.7,1.1,1.2,1.5c2.4,2.2,6.2,2.1,8.4-0.3c2.2-2.4,2.1-6.2-0.3-8.4
		c-0.5-0.4-1-0.8-1.6-1.1C79.2,11.1,78.7,13.4,77.1,15.1"/>
	<path d="M81.1,9.3c1.7,1.6,2.4,3.9,2.1,6c0.5-0.3,1.1-0.7,1.5-1.2c2.2-2.4,2.1-6.2-0.3-8.4C82,3.4,78.3,3.6,76,6
		c-0.4,0.5-0.8,1-1.1,1.6C77.1,7.1,79.4,7.7,81.1,9.3"/>
	<path d="M75.3,5.2c1.6-1.7,3.9-2.4,6-2.1c-0.3-0.5-0.7-1.1-1.2-1.5c-2.4-2.2-6.2-2.1-8.4,0.3c-2.2,2.4-2.1,6.2,0.3,8.4
		c0.5,0.4,1,0.8,1.6,1.1C73.1,9.2,73.7,6.9,75.3,5.2"/>
	<path d="M71.3,11.1c-1.7-1.6-2.4-3.9-2.1-6c-0.5,0.3-1.1,0.7-1.5,1.2c-2.2,2.4-2.1,6.2,0.3,8.4c2.4,2.2,6.2,2.1,8.4-0.3
		c0.5-0.5,0.8-1,1.1-1.6C75.3,13.2,73,12.7,71.3,11.1"/>
</g>
</svg>
