<?xml version="1.0" encoding="utf-8"?>
<!-- Generator: Adobe Illustrator 19.0.0, SVG Export Plug-In . SVG Version: 6.00 Build 0)  -->
<svg version="1.0" id="Camada_1" xmlns="http://www.w3.org/2000/svg" xmlns:xlink="http://www.w3.org/1999/xlink" x="0px" y="0px"
	 viewBox="-367 258 224 45" style="enable-background:new -367 258 224 45;" xml:space="preserve">
<style type="text/css">
	.st0{clip-path:url(#SVGID_2_);}
	.st1{fill:url(#SVGID_3_);}
	.st2{fill:url(#SVGID_4_);}
	.st3{fill:url(#SVGID_5_);}
	.st4{fill:url(#SVGID_6_);}
	.st5{fill:#2D2555;}
	.st6{fill:#007B36;}
</style>
<g>
	<defs>
		<rect id="SVGID_1_" x="-367" y="258" width="224" height="45"/>
	</defs>
	<clipPath id="SVGID_2_">
		<use xlink:href="#SVGID_1_"  style="overflow:visible;"/>
	</clipPath>
	<g class="st0">
		
			<linearGradient id="SVGID_3_" gradientUnits="userSpaceOnUse" x1="-335.535" y1="254.5533" x2="-361.9019" y2="276.2832" gradientTransform="matrix(1 0 0 -1 0 562)">
			<stop  offset="8.900001e-002" style="stop-color:#E76D0A"/>
			<stop  offset="0.4723" style="stop-color:#DA0E15"/>
			<stop  offset="0.5627" style="stop-color:#D50F15"/>
			<stop  offset="0.6721" style="stop-color:#C61215"/>
			<stop  offset="0.7907" style="stop-color:#AE1716"/>
			<stop  offset="0.8602" style="stop-color:#9C1A16"/>
		</linearGradient>
		<path class="st1" d="M-366.9,290.5c0,6.6,11.9,13.2,31,12.5c0,0,0-4,0-6c0-4.6-4.9-4.1-9.1-4c-9.1,0.2-14.6-2.3-19-6.4
			c-1.8-1.8-2.8-4.3-2.9-6.3L-366.9,290.5L-366.9,290.5z"/>
		
			<linearGradient id="SVGID_4_" gradientUnits="userSpaceOnUse" x1="-362.1608" y1="292.6707" x2="-331.1314" y2="292.6707" gradientTransform="matrix(1 0 0 -1 0 562)">
			<stop  offset="0" style="stop-color:#77B12B"/>
			<stop  offset="0.4813" style="stop-color:#2C6B32"/>
			<stop  offset="1" style="stop-color:#264730"/>
		</linearGradient>
		<path class="st2" d="M-362.1,258.1c0,0,0,4,0,6c0,4.6,4.9,4.1,9.1,4c9.1-0.2,14.6,2.3,19,6.4c1.8,1.8,2.8,4.3,2.9,6.3v-10.1
			c0-6.3-10.7-12.5-28.2-12.5C-360.2,258-361.2,258-362.1,258.1z"/>
		
			<linearGradient id="SVGID_5_" gradientUnits="userSpaceOnUse" x1="-322.597" y1="291.9078" x2="-353.689" y2="272.3535" gradientTransform="matrix(1 0 0 -1 0 562)">
			<stop  offset="0" style="stop-color:#CED200"/>
			<stop  offset="0.2325" style="stop-color:#8DB924"/>
			<stop  offset="1" style="stop-color:#007B36"/>
		</linearGradient>
		<path class="st3" d="M-335.1,275c-2.1,0.7-4.9,1.1-7.4,1.5c-6,0.8-12.5,1.5-12.6,7.3v11.6h0c10.5-0.9,23.6-7.5,24-13.9
			c0-0.2,0-0.4,0-0.6c0-0.9-0.1-10-0.1-10C-332.1,274-335.1,275-335.1,275z"/>
		
			<linearGradient id="SVGID_6_" gradientUnits="userSpaceOnUse" x1="-367.0007" y1="284.0804" x2="-342.9613" y2="284.0804" gradientTransform="matrix(1 0 0 -1 0 562)">
			<stop  offset="0" style="stop-color:#E76D0A"/>
			<stop  offset="6.081150e-003" style="stop-color:#E76B0A"/>
			<stop  offset="0.1556" style="stop-color:#E03910"/>
			<stop  offset="0.2689" style="stop-color:#DC1A14"/>
			<stop  offset="0.3321" style="stop-color:#DA0E15"/>
			<stop  offset="0.475" style="stop-color:#D50F15"/>
			<stop  offset="0.6479" style="stop-color:#C61215"/>
			<stop  offset="0.8355" style="stop-color:#AE1716"/>
			<stop  offset="0.9453" style="stop-color:#9C1A16"/>
			<stop  offset="1" style="stop-color:#9C1A16"/>
		</linearGradient>
		<path class="st4" d="M-367,279.5c0,0.2,0,0.4,0,0.6c0,0.9,0.1,10.1,0.1,10.1c0.9-3.1,3.9-4.2,3.9-4.2c2.1-0.7,4.9-1.1,7.4-1.5
			c6-0.8,12.6-1.5,12.6-7.4v-11.5C-353.4,266.5-366.5,273.2-367,279.5z"/>
		<path class="st5" d="M-279.2,270.8h-11.7v24.6h6.5v-9h5.2c10.7,0,11.2-6,11.2-8.1C-268,276-269.3,270.8-279.2,270.8z
			 M-280.4,283.5h-4v-9.6h4c5.2,0,6.3,2.8,6.3,4.6C-274.1,280.3-275,283.5-280.4,283.5z"/>
		<path class="st5" d="M-227.9,274.5c0.9,0.1,1.6,0.1,2-0.6c0.2-0.4,1.1-2,1.1-2c-1.1-0.5-2.2-0.8-3.6-1c-1.3-0.2-2.9-0.3-4.7-0.3
			c-4.9,0-8.7,1.2-11.5,3.6c-2.7,2.4-4.1,5.4-4.1,8.9c0,3.6,1.3,6.6,4.1,9c2.7,2.4,6.5,3.6,11.4,3.6c3.6,0,6.4-0.5,8.4-1.4
			c0,0-1-2-1.3-2.4c-0.4-0.7-1.3-0.4-2.1-0.3c-2.1,0.4-7.5,1.5-10.9-1.9c-1.6-1.7-2.5-3.9-2.5-6.6c0-2.6,0.8-5,2.4-6.6
			C-235.4,272.7-228.8,274.5-227.9,274.5z"/>
		<path class="st5" d="M-258.4,270.8h-3.5v24.7h6.9v-22.2C-254.9,271.7-255.9,270.8-258.4,270.8z"/>
		<path class="st5" d="M-304.9,281.3c-2.8-0.8-4.7-1.5-5.8-2.1c-1-0.6-1.5-1.4-1.5-2.4c0-1.1,0.6-1.9,1.6-2.5
			c1.1-0.6,2.5-0.9,4.4-0.8c1.2,0,2.4,0.2,3.4,0.4c0.5,0.1,0.9,0.2,1.3,0.3c0.9,0.3,2-0.1,2.5-0.9l0.8-1.2c-1-0.4-2.3-0.8-3.7-1.1
			c-1.5-0.3-3.2-0.5-5.2-0.5c-3.7-0.1-6.7,0.5-9,1.7c-2.3,1.3-3.5,2.9-3.5,4.9c-0.1,1.3,0.5,2.6,1.8,3.8c1.2,1.2,3.2,2.1,5.9,2.9
			c2.7,0.8,4.5,1.4,5.5,2.1c1,0.6,1.4,1.4,1.4,2.3c0,1.1-0.7,1.8-1.9,2.4c-1.2,0.6-2.8,0.9-4.8,0.9c-1.4,0-2.7-0.2-3.9-0.4
			c-0.5-0.1-0.9-0.2-1.4-0.3c-1-0.3-2,0.3-2.6,1.1l-1,1.5c1.2,0.5,2.6,0.9,4.2,1.2c1.6,0.3,3.5,0.4,5.9,0.5c3.8,0.1,7-0.5,9.5-1.8
			c2.5-1.3,3.8-3,3.9-5.1c0.1-1.4-0.5-2.7-1.8-3.9C-300,283.1-302,282.1-304.9,281.3z"/>
		<path class="st6" d="M-215.6,279.2h3.9c2.7,0,5.2,0.9,5.2,4c0,2.1-1,3.3-3,3.7v0c2.1,0.4,3.5,1.7,3.5,3.9c0,3.6-2.9,4.7-6.4,4.7
			h-3.3L-215.6,279.2L-215.6,279.2z M-214,294.2h1.7c2.2,0,4.7-0.6,4.7-3.2c0-2.9-2.5-3.2-4.9-3.2h-1.4L-214,294.2L-214,294.2z
			 M-213.9,286.4h1.8c1.7,0,4-0.4,4-3.1c0-2.4-2.2-2.7-3.6-2.7h-2.2L-213.9,286.4L-213.9,286.4z"/>
		<path class="st6" d="M-201.2,279.2h4.3c2.9,0,4.8,1.2,4.8,4.3c0,2.1-1.6,3.5-3.7,3.8v0c1.3,0.2,1.6,0.9,2.1,2l2.8,6.4h-1.8
			l-2.4-5.6c-0.9-2.1-1.7-2.2-3.2-2.2h-1.3v7.7h-1.6L-201.2,279.2L-201.2,279.2z M-199.6,286.5h1.7c1.9,0,4.1-0.7,4.1-3
			c0-2.7-1.9-2.8-4.2-2.8h-1.7V286.5L-199.6,286.5z"/>
		<path class="st6" d="M-182.1,279.2h1.8l6.5,16.4h-1.7l-1.8-4.4h-8.3l-1.8,4.4h-1.6L-182.1,279.2z M-181.2,280.8l-3.6,9.1h7.2
			L-181.2,280.8z"/>
		<path class="st6" d="M-170.7,293.3c1,0.6,2.1,1,3.6,1c2,0,3.7-1,3.7-3.4c0-3.2-7.6-3.6-7.6-7.9c0-2.6,2.3-4.3,5.2-4.3
			c0.8,0,2.1,0.1,3.2,0.5l-0.3,1.5c-0.7-0.4-1.9-0.6-3-0.6c-1.7,0-3.6,0.7-3.6,2.8c0,3.3,7.6,3.3,7.6,8.1c0,3.3-2.9,4.6-5.4,4.6
			c-1.6,0-2.9-0.3-3.7-0.7L-170.7,293.3z"/>
		<path class="st6" d="M-156,279.2h-1.6v16.4h1.6V279.2z"/>
		<path class="st6" d="M-151.2,279.2h1.6v15h6.6v1.4h-8.2V279.2z"/>
	</g>
</g>
</svg>
